G04 #@! TF.FileFunction,Copper,L2,Bot,Signal*
%FSLAX46Y46*%
G04 Gerber Fmt 4.6, Leading zero omitted, Abs format (unit mm)*
G04 Created by KiCad (PCBNEW 4.0.6) date Saturday, 24. June 2017 00:02:07*
%MOMM*%
%LPD*%
G01*
G04 APERTURE LIST*
%ADD10C,0.100000*%
%ADD11C,1.600000*%
%ADD12R,1.800000X1.800000*%
%ADD13C,1.800000*%
%ADD14R,1.700000X1.700000*%
%ADD15O,1.700000X1.700000*%
%ADD16O,3.048000X1.727200*%
%ADD17O,3.048000X1.524000*%
%ADD18R,1.727200X1.727200*%
%ADD19C,1.727200*%
%ADD20C,0.300000*%
%ADD21C,0.254000*%
G04 APERTURE END LIST*
D10*
D11*
X139745000Y-62575000D03*
X139745000Y-67655000D03*
X172495000Y-98325000D03*
X172495000Y-95825000D03*
X168245000Y-98325000D03*
X168245000Y-95825000D03*
X163745000Y-98825000D03*
X161245000Y-98825000D03*
D12*
X126495000Y-106075000D03*
D13*
X126495000Y-103535000D03*
D14*
X170995000Y-104325000D03*
D15*
X168455000Y-104325000D03*
D14*
X124745000Y-82575000D03*
D15*
X124745000Y-80035000D03*
X124745000Y-77495000D03*
X124745000Y-74955000D03*
X124745000Y-72415000D03*
D14*
X151745000Y-114075000D03*
D15*
X151745000Y-111535000D03*
D14*
X157495000Y-114075000D03*
D15*
X157495000Y-111535000D03*
D14*
X154745000Y-63075000D03*
D15*
X152205000Y-63075000D03*
X149665000Y-63075000D03*
D11*
X131245000Y-104325000D03*
X131245000Y-99245000D03*
X138745000Y-99325000D03*
X138745000Y-104405000D03*
X134995000Y-104325000D03*
X134995000Y-99245000D03*
X135745000Y-62575000D03*
X135745000Y-67655000D03*
X151495000Y-104575000D03*
X156575000Y-104575000D03*
X142495000Y-104325000D03*
X142495000Y-99245000D03*
X160245000Y-62575000D03*
X160245000Y-67655000D03*
D16*
X115245000Y-94575000D03*
X115245000Y-89575000D03*
X127745000Y-94575000D03*
X127745000Y-89575000D03*
D17*
X168245000Y-73285000D03*
X168245000Y-75825000D03*
X168245000Y-78365000D03*
D18*
X136245000Y-94575000D03*
D19*
X138785000Y-94575000D03*
X141325000Y-94575000D03*
X143865000Y-94575000D03*
X146405000Y-94575000D03*
X148945000Y-94575000D03*
X151485000Y-94575000D03*
X154025000Y-94575000D03*
X156565000Y-94575000D03*
X159105000Y-94575000D03*
X161645000Y-94575000D03*
X161645000Y-71715000D03*
X159105000Y-71715000D03*
X156565000Y-71715000D03*
X154025000Y-71715000D03*
X151485000Y-71715000D03*
X148945000Y-71715000D03*
X146405000Y-71715000D03*
X143865000Y-71715000D03*
X141325000Y-71715000D03*
X138785000Y-71715000D03*
X136245000Y-71715000D03*
X133705000Y-79843000D03*
X133705000Y-82383000D03*
X133705000Y-84923000D03*
X133705000Y-87463000D03*
D20*
X168245000Y-75825000D02*
X168245000Y-74612700D01*
X160245000Y-67825000D02*
X160245000Y-67655000D01*
X167032700Y-74612700D02*
X160245000Y-67825000D01*
X168245000Y-74612700D02*
X167032700Y-74612700D01*
X150982700Y-61757300D02*
X149665000Y-63075000D01*
X155765000Y-61757300D02*
X150982700Y-61757300D01*
X160245000Y-66237300D02*
X155765000Y-61757300D01*
X160245000Y-67655000D02*
X160245000Y-66237300D01*
X132504400Y-101834400D02*
X134995000Y-104325000D01*
X132504400Y-88663600D02*
X132504400Y-101834400D01*
X133705000Y-87463000D02*
X132504400Y-88663600D01*
X161245000Y-106484700D02*
X157495000Y-110234700D01*
X161245000Y-98825000D02*
X161245000Y-106484700D01*
X157495000Y-111535000D02*
X157495000Y-110234700D01*
X167032700Y-77037300D02*
X168245000Y-77037300D01*
X161645000Y-82425000D02*
X167032700Y-77037300D01*
X161645000Y-94575000D02*
X161645000Y-82425000D01*
X168245000Y-75825000D02*
X168245000Y-77037300D01*
X169755400Y-95585400D02*
X172495000Y-98325000D01*
X169755400Y-81087700D02*
X169755400Y-95585400D01*
X168245000Y-79577300D02*
X169755400Y-81087700D01*
X168245000Y-78365000D02*
X168245000Y-79577300D01*
X170995000Y-99825000D02*
X172495000Y-98325000D01*
X170995000Y-104325000D02*
X170995000Y-99825000D01*
X168455000Y-104325000D02*
X168455000Y-103024700D01*
X165745000Y-98825000D02*
X163745000Y-98825000D01*
X165745000Y-98325000D02*
X165745000Y-98825000D01*
X168245000Y-95825000D02*
X165745000Y-98325000D01*
X165745000Y-100314700D02*
X168455000Y-103024700D01*
X165745000Y-98825000D02*
X165745000Y-100314700D01*
X127745000Y-89575000D02*
X125770700Y-89575000D01*
X117881100Y-90236800D02*
X117219300Y-89575000D01*
X125108900Y-90236800D02*
X117881100Y-90236800D01*
X125108900Y-104688900D02*
X125108900Y-90236800D01*
X126495000Y-106075000D02*
X125108900Y-104688900D01*
X125108900Y-90236800D02*
X125770700Y-89575000D01*
X115245000Y-89575000D02*
X117219300Y-89575000D01*
X126277000Y-72043000D02*
X126277000Y-72415000D01*
X135745000Y-62575000D02*
X126277000Y-72043000D01*
X133705000Y-79843000D02*
X126277000Y-72415000D01*
X126277000Y-72415000D02*
X124745000Y-72415000D01*
X126277000Y-77495000D02*
X124745000Y-77495000D01*
X133705000Y-84923000D02*
X126277000Y-77495000D01*
X139148500Y-102778800D02*
X150444700Y-114075000D01*
X135888000Y-102778800D02*
X139148500Y-102778800D01*
X133104700Y-99995500D02*
X135888000Y-102778800D01*
X133104700Y-92700600D02*
X133104700Y-99995500D01*
X138785000Y-87020300D02*
X133104700Y-92700600D01*
X138785000Y-71715000D02*
X138785000Y-87020300D01*
X151745000Y-114075000D02*
X150444700Y-114075000D01*
X141123400Y-100616600D02*
X142416900Y-99323100D01*
X134574700Y-100616600D02*
X141123400Y-100616600D01*
X133705000Y-99746900D02*
X134574700Y-100616600D01*
X133705000Y-93505800D02*
X133705000Y-99746900D01*
X141325000Y-85885800D02*
X133705000Y-93505800D01*
X141325000Y-71715000D02*
X141325000Y-85885800D01*
X142416900Y-99323100D02*
X142495000Y-99245000D01*
X156194700Y-113100900D02*
X156194700Y-114075000D01*
X142416900Y-99323100D02*
X156194700Y-113100900D01*
X157495000Y-114075000D02*
X156194700Y-114075000D01*
X151204700Y-64375300D02*
X152205000Y-64375300D01*
X143865000Y-71715000D02*
X151204700Y-64375300D01*
X152205000Y-63075000D02*
X152205000Y-64375300D01*
X138785000Y-99285000D02*
X138745000Y-99325000D01*
X138785000Y-94575000D02*
X138785000Y-99285000D01*
X134995000Y-97138900D02*
X134995000Y-99245000D01*
X136245000Y-95888900D02*
X134995000Y-97138900D01*
X136245000Y-94575000D02*
X136245000Y-95888900D01*
X135745000Y-71215000D02*
X135745000Y-67655000D01*
X136245000Y-71715000D02*
X135745000Y-71215000D01*
D21*
G36*
X179290000Y-119290000D02*
X110710000Y-119290000D01*
X110710000Y-106360750D01*
X124960000Y-106360750D01*
X124960000Y-107101309D01*
X125056673Y-107334698D01*
X125235301Y-107513327D01*
X125468690Y-107610000D01*
X126209250Y-107610000D01*
X126368000Y-107451250D01*
X126368000Y-106202000D01*
X126622000Y-106202000D01*
X126622000Y-107451250D01*
X126780750Y-107610000D01*
X127521310Y-107610000D01*
X127754699Y-107513327D01*
X127933327Y-107334698D01*
X128030000Y-107101309D01*
X128030000Y-106360750D01*
X127871250Y-106202000D01*
X126622000Y-106202000D01*
X126368000Y-106202000D01*
X125118750Y-106202000D01*
X124960000Y-106360750D01*
X110710000Y-106360750D01*
X110710000Y-103838991D01*
X124959735Y-103838991D01*
X125192932Y-104403371D01*
X125370092Y-104580841D01*
X125235301Y-104636673D01*
X125056673Y-104815302D01*
X124960000Y-105048691D01*
X124960000Y-105789250D01*
X125118750Y-105948000D01*
X126368000Y-105948000D01*
X126368000Y-105928000D01*
X126622000Y-105928000D01*
X126622000Y-105948000D01*
X127871250Y-105948000D01*
X128030000Y-105789250D01*
X128030000Y-105048691D01*
X127933327Y-104815302D01*
X127754699Y-104636673D01*
X127688343Y-104609187D01*
X129809752Y-104609187D01*
X130027757Y-105136800D01*
X130431077Y-105540824D01*
X130958309Y-105759750D01*
X131529187Y-105760248D01*
X132056800Y-105542243D01*
X132460824Y-105138923D01*
X132679750Y-104611691D01*
X132680248Y-104040813D01*
X132462243Y-103513200D01*
X132058923Y-103109176D01*
X131531691Y-102890250D01*
X130960813Y-102889752D01*
X130433200Y-103107757D01*
X130029176Y-103511077D01*
X129810250Y-104038309D01*
X129809752Y-104609187D01*
X127688343Y-104609187D01*
X127620006Y-104580881D01*
X127795551Y-104405643D01*
X128029733Y-103841670D01*
X128030265Y-103231009D01*
X127797068Y-102666629D01*
X127365643Y-102234449D01*
X126801670Y-102000267D01*
X126191009Y-101999735D01*
X125626629Y-102232932D01*
X125194449Y-102664357D01*
X124960267Y-103228330D01*
X124959735Y-103838991D01*
X110710000Y-103838991D01*
X110710000Y-94575000D01*
X113043703Y-94575000D01*
X113157777Y-95148489D01*
X113482633Y-95634670D01*
X113968814Y-95959526D01*
X114542303Y-96073600D01*
X115947697Y-96073600D01*
X116521186Y-95959526D01*
X117007367Y-95634670D01*
X117332223Y-95148489D01*
X117446297Y-94575000D01*
X125543703Y-94575000D01*
X125657777Y-95148489D01*
X125982633Y-95634670D01*
X126468814Y-95959526D01*
X127042303Y-96073600D01*
X128447697Y-96073600D01*
X129021186Y-95959526D01*
X129507367Y-95634670D01*
X129832223Y-95148489D01*
X129946297Y-94575000D01*
X129832223Y-94001511D01*
X129507367Y-93515330D01*
X129021186Y-93190474D01*
X128447697Y-93076400D01*
X127042303Y-93076400D01*
X126468814Y-93190474D01*
X125982633Y-93515330D01*
X125657777Y-94001511D01*
X125543703Y-94575000D01*
X117446297Y-94575000D01*
X117332223Y-94001511D01*
X117007367Y-93515330D01*
X116521186Y-93190474D01*
X115947697Y-93076400D01*
X114542303Y-93076400D01*
X113968814Y-93190474D01*
X113482633Y-93515330D01*
X113157777Y-94001511D01*
X113043703Y-94575000D01*
X110710000Y-94575000D01*
X110710000Y-89934026D01*
X113129642Y-89934026D01*
X113151473Y-90031157D01*
X113435127Y-90544868D01*
X113893778Y-90910925D01*
X114457600Y-91073600D01*
X115118000Y-91073600D01*
X115118000Y-89702000D01*
X115372000Y-89702000D01*
X115372000Y-91073600D01*
X116032400Y-91073600D01*
X116596222Y-90910925D01*
X117054873Y-90544868D01*
X117338527Y-90031157D01*
X117360358Y-89934026D01*
X125629642Y-89934026D01*
X125651473Y-90031157D01*
X125935127Y-90544868D01*
X126393778Y-90910925D01*
X126957600Y-91073600D01*
X127618000Y-91073600D01*
X127618000Y-89702000D01*
X127872000Y-89702000D01*
X127872000Y-91073600D01*
X128532400Y-91073600D01*
X129096222Y-90910925D01*
X129554873Y-90544868D01*
X129838527Y-90031157D01*
X129860358Y-89934026D01*
X129739217Y-89702000D01*
X127872000Y-89702000D01*
X127618000Y-89702000D01*
X125750783Y-89702000D01*
X125629642Y-89934026D01*
X117360358Y-89934026D01*
X117239217Y-89702000D01*
X115372000Y-89702000D01*
X115118000Y-89702000D01*
X113250783Y-89702000D01*
X113129642Y-89934026D01*
X110710000Y-89934026D01*
X110710000Y-89215974D01*
X113129642Y-89215974D01*
X113250783Y-89448000D01*
X115118000Y-89448000D01*
X115118000Y-88076400D01*
X115372000Y-88076400D01*
X115372000Y-89448000D01*
X117239217Y-89448000D01*
X117360358Y-89215974D01*
X125629642Y-89215974D01*
X125750783Y-89448000D01*
X127618000Y-89448000D01*
X127618000Y-88076400D01*
X127872000Y-88076400D01*
X127872000Y-89448000D01*
X129739217Y-89448000D01*
X129860358Y-89215974D01*
X129838527Y-89118843D01*
X129554873Y-88605132D01*
X129096222Y-88239075D01*
X128532400Y-88076400D01*
X127872000Y-88076400D01*
X127618000Y-88076400D01*
X126957600Y-88076400D01*
X126393778Y-88239075D01*
X125935127Y-88605132D01*
X125651473Y-89118843D01*
X125629642Y-89215974D01*
X117360358Y-89215974D01*
X117338527Y-89118843D01*
X117054873Y-88605132D01*
X116596222Y-88239075D01*
X116032400Y-88076400D01*
X115372000Y-88076400D01*
X115118000Y-88076400D01*
X114457600Y-88076400D01*
X113893778Y-88239075D01*
X113435127Y-88605132D01*
X113151473Y-89118843D01*
X113129642Y-89215974D01*
X110710000Y-89215974D01*
X110710000Y-74955000D01*
X123230907Y-74955000D01*
X123343946Y-75523285D01*
X123665853Y-76005054D01*
X123995026Y-76225000D01*
X123665853Y-76444946D01*
X123343946Y-76926715D01*
X123230907Y-77495000D01*
X123343946Y-78063285D01*
X123665853Y-78545054D01*
X123995026Y-78765000D01*
X123665853Y-78984946D01*
X123343946Y-79466715D01*
X123230907Y-80035000D01*
X123343946Y-80603285D01*
X123665853Y-81085054D01*
X123707452Y-81112850D01*
X123659683Y-81121838D01*
X123443559Y-81260910D01*
X123298569Y-81473110D01*
X123247560Y-81725000D01*
X123247560Y-83425000D01*
X123291838Y-83660317D01*
X123430910Y-83876441D01*
X123643110Y-84021431D01*
X123895000Y-84072440D01*
X125595000Y-84072440D01*
X125830317Y-84028162D01*
X126046441Y-83889090D01*
X126191431Y-83676890D01*
X126242440Y-83425000D01*
X126242440Y-81725000D01*
X126198162Y-81489683D01*
X126059090Y-81273559D01*
X125846890Y-81128569D01*
X125779459Y-81114914D01*
X125824147Y-81085054D01*
X126146054Y-80603285D01*
X126259093Y-80035000D01*
X126146054Y-79466715D01*
X125824147Y-78984946D01*
X125494974Y-78765000D01*
X125824147Y-78545054D01*
X125981460Y-78309618D01*
X132232710Y-84560868D01*
X132206661Y-84623602D01*
X132206141Y-85219782D01*
X132433808Y-85770780D01*
X132855003Y-86192710D01*
X132855931Y-86193095D01*
X132435290Y-86613003D01*
X132206661Y-87163602D01*
X132206141Y-87759782D01*
X132233016Y-87824826D01*
X131949321Y-88108521D01*
X131779155Y-88363193D01*
X131779155Y-88363194D01*
X131719400Y-88663600D01*
X131719400Y-97888194D01*
X131531691Y-97810250D01*
X130960813Y-97809752D01*
X130433200Y-98027757D01*
X130029176Y-98431077D01*
X129810250Y-98958309D01*
X129809752Y-99529187D01*
X130027757Y-100056800D01*
X130431077Y-100460824D01*
X130958309Y-100679750D01*
X131529187Y-100680248D01*
X131719400Y-100601654D01*
X131719400Y-101834400D01*
X131779155Y-102134807D01*
X131949321Y-102389479D01*
X133571370Y-104011528D01*
X133560250Y-104038309D01*
X133559752Y-104609187D01*
X133777757Y-105136800D01*
X134181077Y-105540824D01*
X134708309Y-105759750D01*
X135279187Y-105760248D01*
X135806800Y-105542243D01*
X136210824Y-105138923D01*
X136429750Y-104611691D01*
X136430248Y-104040813D01*
X136233150Y-103563800D01*
X137556501Y-103563800D01*
X137529176Y-103591077D01*
X137310250Y-104118309D01*
X137309752Y-104689187D01*
X137527757Y-105216800D01*
X137931077Y-105620824D01*
X138458309Y-105839750D01*
X139029187Y-105840248D01*
X139556800Y-105622243D01*
X139960824Y-105218923D01*
X140112702Y-104853160D01*
X149889621Y-114630079D01*
X150144293Y-114800245D01*
X150247560Y-114820786D01*
X150247560Y-114925000D01*
X150291838Y-115160317D01*
X150430910Y-115376441D01*
X150643110Y-115521431D01*
X150895000Y-115572440D01*
X152595000Y-115572440D01*
X152830317Y-115528162D01*
X153046441Y-115389090D01*
X153191431Y-115176890D01*
X153242440Y-114925000D01*
X153242440Y-113225000D01*
X153198162Y-112989683D01*
X153059090Y-112773559D01*
X152846890Y-112628569D01*
X152779459Y-112614914D01*
X152824147Y-112585054D01*
X153146054Y-112103285D01*
X153259093Y-111535000D01*
X153194646Y-111211004D01*
X155409700Y-113426058D01*
X155409700Y-114075000D01*
X155469455Y-114375406D01*
X155639621Y-114630079D01*
X155894294Y-114800245D01*
X155997560Y-114820786D01*
X155997560Y-114925000D01*
X156041838Y-115160317D01*
X156180910Y-115376441D01*
X156393110Y-115521431D01*
X156645000Y-115572440D01*
X158345000Y-115572440D01*
X158580317Y-115528162D01*
X158796441Y-115389090D01*
X158941431Y-115176890D01*
X158992440Y-114925000D01*
X158992440Y-113225000D01*
X158948162Y-112989683D01*
X158809090Y-112773559D01*
X158596890Y-112628569D01*
X158529459Y-112614914D01*
X158574147Y-112585054D01*
X158896054Y-112103285D01*
X159009093Y-111535000D01*
X158896054Y-110966715D01*
X158574147Y-110484946D01*
X158442725Y-110397133D01*
X161800079Y-107039779D01*
X161970245Y-106785106D01*
X162030000Y-106484700D01*
X162030000Y-104681892D01*
X167013514Y-104681892D01*
X167259817Y-105206358D01*
X167688076Y-105596645D01*
X168098110Y-105766476D01*
X168328000Y-105645155D01*
X168328000Y-104452000D01*
X167134181Y-104452000D01*
X167013514Y-104681892D01*
X162030000Y-104681892D01*
X162030000Y-103968108D01*
X167013514Y-103968108D01*
X167134181Y-104198000D01*
X168328000Y-104198000D01*
X168328000Y-103004845D01*
X168098110Y-102883524D01*
X167688076Y-103053355D01*
X167259817Y-103443642D01*
X167013514Y-103968108D01*
X162030000Y-103968108D01*
X162030000Y-100053317D01*
X162056800Y-100042243D01*
X162266663Y-99832745D01*
X162916861Y-99832745D01*
X162990995Y-100078864D01*
X163528223Y-100271965D01*
X164098454Y-100244778D01*
X164499005Y-100078864D01*
X164573139Y-99832745D01*
X163745000Y-99004605D01*
X162916861Y-99832745D01*
X162266663Y-99832745D01*
X162460824Y-99638923D01*
X162488423Y-99572456D01*
X162491136Y-99579005D01*
X162737255Y-99653139D01*
X163565395Y-98825000D01*
X163924605Y-98825000D01*
X164752745Y-99653139D01*
X164998864Y-99579005D01*
X165191965Y-99041777D01*
X165171341Y-98609187D01*
X166809752Y-98609187D01*
X167027757Y-99136800D01*
X167431077Y-99540824D01*
X167958309Y-99759750D01*
X168529187Y-99760248D01*
X169056800Y-99542243D01*
X169460824Y-99138923D01*
X169679750Y-98611691D01*
X169680248Y-98040813D01*
X169462243Y-97513200D01*
X169058923Y-97109176D01*
X168992456Y-97081577D01*
X168999005Y-97078864D01*
X169073139Y-96832745D01*
X168245000Y-96004605D01*
X167416861Y-96832745D01*
X167490995Y-97078864D01*
X167497483Y-97081196D01*
X167433200Y-97107757D01*
X167029176Y-97511077D01*
X166810250Y-98038309D01*
X166809752Y-98609187D01*
X165171341Y-98609187D01*
X165164778Y-98471546D01*
X164998864Y-98070995D01*
X164752745Y-97996861D01*
X163924605Y-98825000D01*
X163565395Y-98825000D01*
X162737255Y-97996861D01*
X162491136Y-98070995D01*
X162488804Y-98077483D01*
X162462243Y-98013200D01*
X162266640Y-97817255D01*
X162916861Y-97817255D01*
X163745000Y-98645395D01*
X164573139Y-97817255D01*
X164499005Y-97571136D01*
X163961777Y-97378035D01*
X163391546Y-97405222D01*
X162990995Y-97571136D01*
X162916861Y-97817255D01*
X162266640Y-97817255D01*
X162058923Y-97609176D01*
X161531691Y-97390250D01*
X160960813Y-97389752D01*
X160433200Y-97607757D01*
X160029176Y-98011077D01*
X159810250Y-98538309D01*
X159809752Y-99109187D01*
X160027757Y-99636800D01*
X160431077Y-100040824D01*
X160460000Y-100052834D01*
X160460000Y-106159542D01*
X156939921Y-109679621D01*
X156769755Y-109934293D01*
X156769755Y-109934294D01*
X156710000Y-110234700D01*
X156710000Y-110288404D01*
X156415853Y-110484946D01*
X156093946Y-110966715D01*
X155980907Y-111535000D01*
X156040984Y-111837026D01*
X149786703Y-105582745D01*
X150666861Y-105582745D01*
X150740995Y-105828864D01*
X151278223Y-106021965D01*
X151848454Y-105994778D01*
X152249005Y-105828864D01*
X152323139Y-105582745D01*
X151495000Y-104754605D01*
X150666861Y-105582745D01*
X149786703Y-105582745D01*
X148562181Y-104358223D01*
X150048035Y-104358223D01*
X150075222Y-104928454D01*
X150241136Y-105329005D01*
X150487255Y-105403139D01*
X151315395Y-104575000D01*
X151674605Y-104575000D01*
X152502745Y-105403139D01*
X152748864Y-105329005D01*
X152917735Y-104859187D01*
X155139752Y-104859187D01*
X155357757Y-105386800D01*
X155761077Y-105790824D01*
X156288309Y-106009750D01*
X156859187Y-106010248D01*
X157386800Y-105792243D01*
X157790824Y-105388923D01*
X158009750Y-104861691D01*
X158010248Y-104290813D01*
X157792243Y-103763200D01*
X157388923Y-103359176D01*
X156861691Y-103140250D01*
X156290813Y-103139752D01*
X155763200Y-103357757D01*
X155359176Y-103761077D01*
X155140250Y-104288309D01*
X155139752Y-104859187D01*
X152917735Y-104859187D01*
X152941965Y-104791777D01*
X152914778Y-104221546D01*
X152748864Y-103820995D01*
X152502745Y-103746861D01*
X151674605Y-104575000D01*
X151315395Y-104575000D01*
X150487255Y-103746861D01*
X150241136Y-103820995D01*
X150048035Y-104358223D01*
X148562181Y-104358223D01*
X147771213Y-103567255D01*
X150666861Y-103567255D01*
X151495000Y-104395395D01*
X152323139Y-103567255D01*
X152249005Y-103321136D01*
X151711777Y-103128035D01*
X151141546Y-103155222D01*
X150740995Y-103321136D01*
X150666861Y-103567255D01*
X147771213Y-103567255D01*
X143872800Y-99668842D01*
X143929750Y-99531691D01*
X143930248Y-98960813D01*
X143712243Y-98433200D01*
X143308923Y-98029176D01*
X142781691Y-97810250D01*
X142210813Y-97809752D01*
X141683200Y-98027757D01*
X141279176Y-98431077D01*
X141060250Y-98958309D01*
X141059752Y-99529187D01*
X141071711Y-99558131D01*
X140798242Y-99831600D01*
X140088436Y-99831600D01*
X140179750Y-99611691D01*
X140180248Y-99040813D01*
X139962243Y-98513200D01*
X139570000Y-98120272D01*
X139570000Y-95872132D01*
X139632780Y-95846192D01*
X140054710Y-95424997D01*
X140055095Y-95424069D01*
X140475003Y-95844710D01*
X141025602Y-96073339D01*
X141621782Y-96073859D01*
X142172780Y-95846192D01*
X142594710Y-95424997D01*
X142595095Y-95424069D01*
X143015003Y-95844710D01*
X143565602Y-96073339D01*
X144161782Y-96073859D01*
X144712780Y-95846192D01*
X145134710Y-95424997D01*
X145135095Y-95424069D01*
X145555003Y-95844710D01*
X146105602Y-96073339D01*
X146701782Y-96073859D01*
X147252780Y-95846192D01*
X147674710Y-95424997D01*
X147675095Y-95424069D01*
X148095003Y-95844710D01*
X148645602Y-96073339D01*
X149241782Y-96073859D01*
X149792780Y-95846192D01*
X150214710Y-95424997D01*
X150215095Y-95424069D01*
X150635003Y-95844710D01*
X151185602Y-96073339D01*
X151781782Y-96073859D01*
X152332780Y-95846192D01*
X152754710Y-95424997D01*
X152755095Y-95424069D01*
X153175003Y-95844710D01*
X153725602Y-96073339D01*
X154321782Y-96073859D01*
X154872780Y-95846192D01*
X155294710Y-95424997D01*
X155295095Y-95424069D01*
X155715003Y-95844710D01*
X156265602Y-96073339D01*
X156861782Y-96073859D01*
X157412780Y-95846192D01*
X157834710Y-95424997D01*
X157835095Y-95424069D01*
X158255003Y-95844710D01*
X158805602Y-96073339D01*
X159401782Y-96073859D01*
X159952780Y-95846192D01*
X160374710Y-95424997D01*
X160375095Y-95424069D01*
X160795003Y-95844710D01*
X161345602Y-96073339D01*
X161941782Y-96073859D01*
X162492780Y-95846192D01*
X162731164Y-95608223D01*
X166798035Y-95608223D01*
X166825222Y-96178454D01*
X166991136Y-96579005D01*
X167237255Y-96653139D01*
X168065395Y-95825000D01*
X167237255Y-94996861D01*
X166991136Y-95070995D01*
X166798035Y-95608223D01*
X162731164Y-95608223D01*
X162914710Y-95424997D01*
X163143339Y-94874398D01*
X163143859Y-94278218D01*
X162916192Y-93727220D01*
X162494997Y-93305290D01*
X162430000Y-93278301D01*
X162430000Y-82750158D01*
X166202316Y-78977842D01*
X166452875Y-79352828D01*
X166906094Y-79655660D01*
X167440703Y-79762000D01*
X167496739Y-79762000D01*
X167519755Y-79877707D01*
X167689921Y-80132379D01*
X168970400Y-81412858D01*
X168970400Y-94560854D01*
X168461777Y-94378035D01*
X167891546Y-94405222D01*
X167490995Y-94571136D01*
X167416861Y-94817255D01*
X168245000Y-95645395D01*
X168259142Y-95631252D01*
X168438748Y-95810858D01*
X168424605Y-95825000D01*
X169252745Y-96653139D01*
X169498864Y-96579005D01*
X169535876Y-96476034D01*
X171071371Y-98011528D01*
X171060250Y-98038309D01*
X171059752Y-98609187D01*
X171071711Y-98638131D01*
X170439921Y-99269921D01*
X170269755Y-99524593D01*
X170235840Y-99695093D01*
X170210000Y-99825000D01*
X170210000Y-102827560D01*
X170145000Y-102827560D01*
X169909683Y-102871838D01*
X169693559Y-103010910D01*
X169548569Y-103223110D01*
X169526699Y-103331107D01*
X169221924Y-103053355D01*
X168811890Y-102883524D01*
X168582000Y-103004845D01*
X168582000Y-104198000D01*
X168602000Y-104198000D01*
X168602000Y-104452000D01*
X168582000Y-104452000D01*
X168582000Y-105645155D01*
X168811890Y-105766476D01*
X169221924Y-105596645D01*
X169524937Y-105320499D01*
X169541838Y-105410317D01*
X169680910Y-105626441D01*
X169893110Y-105771431D01*
X170145000Y-105822440D01*
X171845000Y-105822440D01*
X172080317Y-105778162D01*
X172296441Y-105639090D01*
X172441431Y-105426890D01*
X172492440Y-105175000D01*
X172492440Y-103475000D01*
X172448162Y-103239683D01*
X172309090Y-103023559D01*
X172096890Y-102878569D01*
X171845000Y-102827560D01*
X171780000Y-102827560D01*
X171780000Y-100150158D01*
X172181528Y-99748630D01*
X172208309Y-99759750D01*
X172779187Y-99760248D01*
X173306800Y-99542243D01*
X173710824Y-99138923D01*
X173929750Y-98611691D01*
X173930248Y-98040813D01*
X173712243Y-97513200D01*
X173308923Y-97109176D01*
X173242456Y-97081577D01*
X173249005Y-97078864D01*
X173323139Y-96832745D01*
X172495000Y-96004605D01*
X172480858Y-96018748D01*
X172301252Y-95839142D01*
X172315395Y-95825000D01*
X172674605Y-95825000D01*
X173502745Y-96653139D01*
X173748864Y-96579005D01*
X173941965Y-96041777D01*
X173914778Y-95471546D01*
X173748864Y-95070995D01*
X173502745Y-94996861D01*
X172674605Y-95825000D01*
X172315395Y-95825000D01*
X171487255Y-94996861D01*
X171241136Y-95070995D01*
X171048035Y-95608223D01*
X171056028Y-95775870D01*
X170540400Y-95260242D01*
X170540400Y-94817255D01*
X171666861Y-94817255D01*
X172495000Y-95645395D01*
X173323139Y-94817255D01*
X173249005Y-94571136D01*
X172711777Y-94378035D01*
X172141546Y-94405222D01*
X171740995Y-94571136D01*
X171666861Y-94817255D01*
X170540400Y-94817255D01*
X170540400Y-81087700D01*
X170480645Y-80787294D01*
X170480645Y-80787293D01*
X170310479Y-80532621D01*
X169458469Y-79680611D01*
X169583906Y-79655660D01*
X170037125Y-79352828D01*
X170339957Y-78899609D01*
X170446297Y-78365000D01*
X170339957Y-77830391D01*
X170037125Y-77377172D01*
X169614826Y-77095000D01*
X170037125Y-76812828D01*
X170339957Y-76359609D01*
X170446297Y-75825000D01*
X170339957Y-75290391D01*
X170037125Y-74837172D01*
X169599338Y-74544651D01*
X169658941Y-74527059D01*
X170084630Y-74183026D01*
X170346260Y-73702277D01*
X170361220Y-73628070D01*
X170238720Y-73412000D01*
X168372000Y-73412000D01*
X168372000Y-73432000D01*
X168118000Y-73432000D01*
X168118000Y-73412000D01*
X168098000Y-73412000D01*
X168098000Y-73158000D01*
X168118000Y-73158000D01*
X168118000Y-71888000D01*
X168372000Y-71888000D01*
X168372000Y-73158000D01*
X170238720Y-73158000D01*
X170361220Y-72941930D01*
X170346260Y-72867723D01*
X170084630Y-72386974D01*
X169658941Y-72042941D01*
X169134000Y-71888000D01*
X168372000Y-71888000D01*
X168118000Y-71888000D01*
X167356000Y-71888000D01*
X166831059Y-72042941D01*
X166405370Y-72386974D01*
X166233305Y-72703147D01*
X161618751Y-68088593D01*
X161679750Y-67941691D01*
X161680248Y-67370813D01*
X161462243Y-66843200D01*
X161058923Y-66439176D01*
X161030000Y-66427166D01*
X161030000Y-66237300D01*
X160970245Y-65936894D01*
X160800079Y-65682221D01*
X157977045Y-62859187D01*
X158809752Y-62859187D01*
X159027757Y-63386800D01*
X159431077Y-63790824D01*
X159958309Y-64009750D01*
X160529187Y-64010248D01*
X161056800Y-63792243D01*
X161460824Y-63388923D01*
X161679750Y-62861691D01*
X161680248Y-62290813D01*
X161462243Y-61763200D01*
X161058923Y-61359176D01*
X160531691Y-61140250D01*
X159960813Y-61139752D01*
X159433200Y-61357757D01*
X159029176Y-61761077D01*
X158810250Y-62288309D01*
X158809752Y-62859187D01*
X157977045Y-62859187D01*
X156320079Y-61202221D01*
X156065407Y-61032055D01*
X155765000Y-60972300D01*
X150982700Y-60972300D01*
X150682293Y-61032055D01*
X150427621Y-61202221D01*
X150001918Y-61627924D01*
X149665000Y-61560907D01*
X149096715Y-61673946D01*
X148614946Y-61995853D01*
X148293039Y-62477622D01*
X148180000Y-63045907D01*
X148180000Y-63104093D01*
X148293039Y-63672378D01*
X148614946Y-64154147D01*
X149096715Y-64476054D01*
X149665000Y-64589093D01*
X149934320Y-64535522D01*
X144227132Y-70242710D01*
X144164398Y-70216661D01*
X143568218Y-70216141D01*
X143017220Y-70443808D01*
X142595290Y-70865003D01*
X142594905Y-70865931D01*
X142174997Y-70445290D01*
X141624398Y-70216661D01*
X141028218Y-70216141D01*
X140477220Y-70443808D01*
X140055290Y-70865003D01*
X140054905Y-70865931D01*
X139634997Y-70445290D01*
X139084398Y-70216661D01*
X138488218Y-70216141D01*
X137937220Y-70443808D01*
X137515290Y-70865003D01*
X137514905Y-70865931D01*
X137094997Y-70445290D01*
X136544398Y-70216661D01*
X136530000Y-70216648D01*
X136530000Y-68883317D01*
X136556800Y-68872243D01*
X136960824Y-68468923D01*
X137179750Y-67941691D01*
X137179752Y-67939187D01*
X138309752Y-67939187D01*
X138527757Y-68466800D01*
X138931077Y-68870824D01*
X139458309Y-69089750D01*
X140029187Y-69090248D01*
X140556800Y-68872243D01*
X140960824Y-68468923D01*
X141179750Y-67941691D01*
X141180248Y-67370813D01*
X140962243Y-66843200D01*
X140558923Y-66439176D01*
X140031691Y-66220250D01*
X139460813Y-66219752D01*
X138933200Y-66437757D01*
X138529176Y-66841077D01*
X138310250Y-67368309D01*
X138309752Y-67939187D01*
X137179752Y-67939187D01*
X137180248Y-67370813D01*
X136962243Y-66843200D01*
X136558923Y-66439176D01*
X136031691Y-66220250D01*
X135460813Y-66219752D01*
X134933200Y-66437757D01*
X134529176Y-66841077D01*
X134310250Y-67368309D01*
X134309752Y-67939187D01*
X134527757Y-68466800D01*
X134931077Y-68870824D01*
X134960000Y-68882834D01*
X134960000Y-70901825D01*
X134746661Y-71415602D01*
X134746141Y-72011782D01*
X134973808Y-72562780D01*
X135395003Y-72984710D01*
X135945602Y-73213339D01*
X136541782Y-73213859D01*
X137092780Y-72986192D01*
X137514710Y-72564997D01*
X137515095Y-72564069D01*
X137935003Y-72984710D01*
X138000000Y-73011699D01*
X138000000Y-86695142D01*
X133289400Y-91405742D01*
X133289400Y-88988758D01*
X133342868Y-88935290D01*
X133405602Y-88961339D01*
X134001782Y-88961859D01*
X134552780Y-88734192D01*
X134974710Y-88312997D01*
X135203339Y-87762398D01*
X135203859Y-87166218D01*
X134976192Y-86615220D01*
X134554997Y-86193290D01*
X134554069Y-86192905D01*
X134974710Y-85772997D01*
X135203339Y-85222398D01*
X135203859Y-84626218D01*
X134976192Y-84075220D01*
X134554997Y-83653290D01*
X134554069Y-83652905D01*
X134974710Y-83232997D01*
X135203339Y-82682398D01*
X135203859Y-82086218D01*
X134976192Y-81535220D01*
X134554997Y-81113290D01*
X134514463Y-81096459D01*
X134579200Y-80896805D01*
X133705000Y-80022605D01*
X132830800Y-80896805D01*
X132895399Y-81096033D01*
X132857220Y-81111808D01*
X132435290Y-81533003D01*
X132206661Y-82083602D01*
X132206460Y-82314302D01*
X129503188Y-79611030D01*
X132194752Y-79611030D01*
X132220942Y-80206635D01*
X132398484Y-80635259D01*
X132651195Y-80717200D01*
X133525395Y-79843000D01*
X133884605Y-79843000D01*
X134758805Y-80717200D01*
X135011516Y-80635259D01*
X135215248Y-80074970D01*
X135189058Y-79479365D01*
X135011516Y-79050741D01*
X134758805Y-78968800D01*
X133884605Y-79843000D01*
X133525395Y-79843000D01*
X132651195Y-78968800D01*
X132398484Y-79050741D01*
X132194752Y-79611030D01*
X129503188Y-79611030D01*
X128681353Y-78789195D01*
X132830800Y-78789195D01*
X133705000Y-79663395D01*
X134579200Y-78789195D01*
X134497259Y-78536484D01*
X133936970Y-78332752D01*
X133341365Y-78358942D01*
X132912741Y-78536484D01*
X132830800Y-78789195D01*
X128681353Y-78789195D01*
X126832079Y-76939921D01*
X126577407Y-76769755D01*
X126277000Y-76710000D01*
X126001250Y-76710000D01*
X125824147Y-76444946D01*
X125494974Y-76225000D01*
X125824147Y-76005054D01*
X126146054Y-75523285D01*
X126259093Y-74955000D01*
X126146054Y-74386715D01*
X125824147Y-73904946D01*
X125483447Y-73677298D01*
X125626358Y-73610183D01*
X126016645Y-73181924D01*
X126186476Y-72771890D01*
X126065155Y-72542000D01*
X124872000Y-72542000D01*
X124872000Y-72562000D01*
X124618000Y-72562000D01*
X124618000Y-72542000D01*
X123424845Y-72542000D01*
X123303524Y-72771890D01*
X123473355Y-73181924D01*
X123863642Y-73610183D01*
X124006553Y-73677298D01*
X123665853Y-73904946D01*
X123343946Y-74386715D01*
X123230907Y-74955000D01*
X110710000Y-74955000D01*
X110710000Y-72058110D01*
X123303524Y-72058110D01*
X123424845Y-72288000D01*
X124618000Y-72288000D01*
X124618000Y-71094181D01*
X124872000Y-71094181D01*
X124872000Y-72288000D01*
X126065155Y-72288000D01*
X126186476Y-72058110D01*
X126016645Y-71648076D01*
X125626358Y-71219817D01*
X125101892Y-70973514D01*
X124872000Y-71094181D01*
X124618000Y-71094181D01*
X124388108Y-70973514D01*
X123863642Y-71219817D01*
X123473355Y-71648076D01*
X123303524Y-72058110D01*
X110710000Y-72058110D01*
X110710000Y-63582745D01*
X134916861Y-63582745D01*
X134990995Y-63828864D01*
X135528223Y-64021965D01*
X136098454Y-63994778D01*
X136499005Y-63828864D01*
X136573139Y-63582745D01*
X135745000Y-62754605D01*
X134916861Y-63582745D01*
X110710000Y-63582745D01*
X110710000Y-62358223D01*
X134298035Y-62358223D01*
X134325222Y-62928454D01*
X134491136Y-63329005D01*
X134737255Y-63403139D01*
X135565395Y-62575000D01*
X135924605Y-62575000D01*
X136752745Y-63403139D01*
X136998864Y-63329005D01*
X137167735Y-62859187D01*
X138309752Y-62859187D01*
X138527757Y-63386800D01*
X138931077Y-63790824D01*
X139458309Y-64009750D01*
X140029187Y-64010248D01*
X140556800Y-63792243D01*
X140960824Y-63388923D01*
X141179750Y-62861691D01*
X141180248Y-62290813D01*
X140962243Y-61763200D01*
X140558923Y-61359176D01*
X140031691Y-61140250D01*
X139460813Y-61139752D01*
X138933200Y-61357757D01*
X138529176Y-61761077D01*
X138310250Y-62288309D01*
X138309752Y-62859187D01*
X137167735Y-62859187D01*
X137191965Y-62791777D01*
X137164778Y-62221546D01*
X136998864Y-61820995D01*
X136752745Y-61746861D01*
X135924605Y-62575000D01*
X135565395Y-62575000D01*
X134737255Y-61746861D01*
X134491136Y-61820995D01*
X134298035Y-62358223D01*
X110710000Y-62358223D01*
X110710000Y-61567255D01*
X134916861Y-61567255D01*
X135745000Y-62395395D01*
X136573139Y-61567255D01*
X136499005Y-61321136D01*
X135961777Y-61128035D01*
X135391546Y-61155222D01*
X134990995Y-61321136D01*
X134916861Y-61567255D01*
X110710000Y-61567255D01*
X110710000Y-60710000D01*
X179290000Y-60710000D01*
X179290000Y-119290000D01*
X179290000Y-119290000D01*
G37*
X179290000Y-119290000D02*
X110710000Y-119290000D01*
X110710000Y-106360750D01*
X124960000Y-106360750D01*
X124960000Y-107101309D01*
X125056673Y-107334698D01*
X125235301Y-107513327D01*
X125468690Y-107610000D01*
X126209250Y-107610000D01*
X126368000Y-107451250D01*
X126368000Y-106202000D01*
X126622000Y-106202000D01*
X126622000Y-107451250D01*
X126780750Y-107610000D01*
X127521310Y-107610000D01*
X127754699Y-107513327D01*
X127933327Y-107334698D01*
X128030000Y-107101309D01*
X128030000Y-106360750D01*
X127871250Y-106202000D01*
X126622000Y-106202000D01*
X126368000Y-106202000D01*
X125118750Y-106202000D01*
X124960000Y-106360750D01*
X110710000Y-106360750D01*
X110710000Y-103838991D01*
X124959735Y-103838991D01*
X125192932Y-104403371D01*
X125370092Y-104580841D01*
X125235301Y-104636673D01*
X125056673Y-104815302D01*
X124960000Y-105048691D01*
X124960000Y-105789250D01*
X125118750Y-105948000D01*
X126368000Y-105948000D01*
X126368000Y-105928000D01*
X126622000Y-105928000D01*
X126622000Y-105948000D01*
X127871250Y-105948000D01*
X128030000Y-105789250D01*
X128030000Y-105048691D01*
X127933327Y-104815302D01*
X127754699Y-104636673D01*
X127688343Y-104609187D01*
X129809752Y-104609187D01*
X130027757Y-105136800D01*
X130431077Y-105540824D01*
X130958309Y-105759750D01*
X131529187Y-105760248D01*
X132056800Y-105542243D01*
X132460824Y-105138923D01*
X132679750Y-104611691D01*
X132680248Y-104040813D01*
X132462243Y-103513200D01*
X132058923Y-103109176D01*
X131531691Y-102890250D01*
X130960813Y-102889752D01*
X130433200Y-103107757D01*
X130029176Y-103511077D01*
X129810250Y-104038309D01*
X129809752Y-104609187D01*
X127688343Y-104609187D01*
X127620006Y-104580881D01*
X127795551Y-104405643D01*
X128029733Y-103841670D01*
X128030265Y-103231009D01*
X127797068Y-102666629D01*
X127365643Y-102234449D01*
X126801670Y-102000267D01*
X126191009Y-101999735D01*
X125626629Y-102232932D01*
X125194449Y-102664357D01*
X124960267Y-103228330D01*
X124959735Y-103838991D01*
X110710000Y-103838991D01*
X110710000Y-94575000D01*
X113043703Y-94575000D01*
X113157777Y-95148489D01*
X113482633Y-95634670D01*
X113968814Y-95959526D01*
X114542303Y-96073600D01*
X115947697Y-96073600D01*
X116521186Y-95959526D01*
X117007367Y-95634670D01*
X117332223Y-95148489D01*
X117446297Y-94575000D01*
X125543703Y-94575000D01*
X125657777Y-95148489D01*
X125982633Y-95634670D01*
X126468814Y-95959526D01*
X127042303Y-96073600D01*
X128447697Y-96073600D01*
X129021186Y-95959526D01*
X129507367Y-95634670D01*
X129832223Y-95148489D01*
X129946297Y-94575000D01*
X129832223Y-94001511D01*
X129507367Y-93515330D01*
X129021186Y-93190474D01*
X128447697Y-93076400D01*
X127042303Y-93076400D01*
X126468814Y-93190474D01*
X125982633Y-93515330D01*
X125657777Y-94001511D01*
X125543703Y-94575000D01*
X117446297Y-94575000D01*
X117332223Y-94001511D01*
X117007367Y-93515330D01*
X116521186Y-93190474D01*
X115947697Y-93076400D01*
X114542303Y-93076400D01*
X113968814Y-93190474D01*
X113482633Y-93515330D01*
X113157777Y-94001511D01*
X113043703Y-94575000D01*
X110710000Y-94575000D01*
X110710000Y-89934026D01*
X113129642Y-89934026D01*
X113151473Y-90031157D01*
X113435127Y-90544868D01*
X113893778Y-90910925D01*
X114457600Y-91073600D01*
X115118000Y-91073600D01*
X115118000Y-89702000D01*
X115372000Y-89702000D01*
X115372000Y-91073600D01*
X116032400Y-91073600D01*
X116596222Y-90910925D01*
X117054873Y-90544868D01*
X117338527Y-90031157D01*
X117360358Y-89934026D01*
X125629642Y-89934026D01*
X125651473Y-90031157D01*
X125935127Y-90544868D01*
X126393778Y-90910925D01*
X126957600Y-91073600D01*
X127618000Y-91073600D01*
X127618000Y-89702000D01*
X127872000Y-89702000D01*
X127872000Y-91073600D01*
X128532400Y-91073600D01*
X129096222Y-90910925D01*
X129554873Y-90544868D01*
X129838527Y-90031157D01*
X129860358Y-89934026D01*
X129739217Y-89702000D01*
X127872000Y-89702000D01*
X127618000Y-89702000D01*
X125750783Y-89702000D01*
X125629642Y-89934026D01*
X117360358Y-89934026D01*
X117239217Y-89702000D01*
X115372000Y-89702000D01*
X115118000Y-89702000D01*
X113250783Y-89702000D01*
X113129642Y-89934026D01*
X110710000Y-89934026D01*
X110710000Y-89215974D01*
X113129642Y-89215974D01*
X113250783Y-89448000D01*
X115118000Y-89448000D01*
X115118000Y-88076400D01*
X115372000Y-88076400D01*
X115372000Y-89448000D01*
X117239217Y-89448000D01*
X117360358Y-89215974D01*
X125629642Y-89215974D01*
X125750783Y-89448000D01*
X127618000Y-89448000D01*
X127618000Y-88076400D01*
X127872000Y-88076400D01*
X127872000Y-89448000D01*
X129739217Y-89448000D01*
X129860358Y-89215974D01*
X129838527Y-89118843D01*
X129554873Y-88605132D01*
X129096222Y-88239075D01*
X128532400Y-88076400D01*
X127872000Y-88076400D01*
X127618000Y-88076400D01*
X126957600Y-88076400D01*
X126393778Y-88239075D01*
X125935127Y-88605132D01*
X125651473Y-89118843D01*
X125629642Y-89215974D01*
X117360358Y-89215974D01*
X117338527Y-89118843D01*
X117054873Y-88605132D01*
X116596222Y-88239075D01*
X116032400Y-88076400D01*
X115372000Y-88076400D01*
X115118000Y-88076400D01*
X114457600Y-88076400D01*
X113893778Y-88239075D01*
X113435127Y-88605132D01*
X113151473Y-89118843D01*
X113129642Y-89215974D01*
X110710000Y-89215974D01*
X110710000Y-74955000D01*
X123230907Y-74955000D01*
X123343946Y-75523285D01*
X123665853Y-76005054D01*
X123995026Y-76225000D01*
X123665853Y-76444946D01*
X123343946Y-76926715D01*
X123230907Y-77495000D01*
X123343946Y-78063285D01*
X123665853Y-78545054D01*
X123995026Y-78765000D01*
X123665853Y-78984946D01*
X123343946Y-79466715D01*
X123230907Y-80035000D01*
X123343946Y-80603285D01*
X123665853Y-81085054D01*
X123707452Y-81112850D01*
X123659683Y-81121838D01*
X123443559Y-81260910D01*
X123298569Y-81473110D01*
X123247560Y-81725000D01*
X123247560Y-83425000D01*
X123291838Y-83660317D01*
X123430910Y-83876441D01*
X123643110Y-84021431D01*
X123895000Y-84072440D01*
X125595000Y-84072440D01*
X125830317Y-84028162D01*
X126046441Y-83889090D01*
X126191431Y-83676890D01*
X126242440Y-83425000D01*
X126242440Y-81725000D01*
X126198162Y-81489683D01*
X126059090Y-81273559D01*
X125846890Y-81128569D01*
X125779459Y-81114914D01*
X125824147Y-81085054D01*
X126146054Y-80603285D01*
X126259093Y-80035000D01*
X126146054Y-79466715D01*
X125824147Y-78984946D01*
X125494974Y-78765000D01*
X125824147Y-78545054D01*
X125981460Y-78309618D01*
X132232710Y-84560868D01*
X132206661Y-84623602D01*
X132206141Y-85219782D01*
X132433808Y-85770780D01*
X132855003Y-86192710D01*
X132855931Y-86193095D01*
X132435290Y-86613003D01*
X132206661Y-87163602D01*
X132206141Y-87759782D01*
X132233016Y-87824826D01*
X131949321Y-88108521D01*
X131779155Y-88363193D01*
X131779155Y-88363194D01*
X131719400Y-88663600D01*
X131719400Y-97888194D01*
X131531691Y-97810250D01*
X130960813Y-97809752D01*
X130433200Y-98027757D01*
X130029176Y-98431077D01*
X129810250Y-98958309D01*
X129809752Y-99529187D01*
X130027757Y-100056800D01*
X130431077Y-100460824D01*
X130958309Y-100679750D01*
X131529187Y-100680248D01*
X131719400Y-100601654D01*
X131719400Y-101834400D01*
X131779155Y-102134807D01*
X131949321Y-102389479D01*
X133571370Y-104011528D01*
X133560250Y-104038309D01*
X133559752Y-104609187D01*
X133777757Y-105136800D01*
X134181077Y-105540824D01*
X134708309Y-105759750D01*
X135279187Y-105760248D01*
X135806800Y-105542243D01*
X136210824Y-105138923D01*
X136429750Y-104611691D01*
X136430248Y-104040813D01*
X136233150Y-103563800D01*
X137556501Y-103563800D01*
X137529176Y-103591077D01*
X137310250Y-104118309D01*
X137309752Y-104689187D01*
X137527757Y-105216800D01*
X137931077Y-105620824D01*
X138458309Y-105839750D01*
X139029187Y-105840248D01*
X139556800Y-105622243D01*
X139960824Y-105218923D01*
X140112702Y-104853160D01*
X149889621Y-114630079D01*
X150144293Y-114800245D01*
X150247560Y-114820786D01*
X150247560Y-114925000D01*
X150291838Y-115160317D01*
X150430910Y-115376441D01*
X150643110Y-115521431D01*
X150895000Y-115572440D01*
X152595000Y-115572440D01*
X152830317Y-115528162D01*
X153046441Y-115389090D01*
X153191431Y-115176890D01*
X153242440Y-114925000D01*
X153242440Y-113225000D01*
X153198162Y-112989683D01*
X153059090Y-112773559D01*
X152846890Y-112628569D01*
X152779459Y-112614914D01*
X152824147Y-112585054D01*
X153146054Y-112103285D01*
X153259093Y-111535000D01*
X153194646Y-111211004D01*
X155409700Y-113426058D01*
X155409700Y-114075000D01*
X155469455Y-114375406D01*
X155639621Y-114630079D01*
X155894294Y-114800245D01*
X155997560Y-114820786D01*
X155997560Y-114925000D01*
X156041838Y-115160317D01*
X156180910Y-115376441D01*
X156393110Y-115521431D01*
X156645000Y-115572440D01*
X158345000Y-115572440D01*
X158580317Y-115528162D01*
X158796441Y-115389090D01*
X158941431Y-115176890D01*
X158992440Y-114925000D01*
X158992440Y-113225000D01*
X158948162Y-112989683D01*
X158809090Y-112773559D01*
X158596890Y-112628569D01*
X158529459Y-112614914D01*
X158574147Y-112585054D01*
X158896054Y-112103285D01*
X159009093Y-111535000D01*
X158896054Y-110966715D01*
X158574147Y-110484946D01*
X158442725Y-110397133D01*
X161800079Y-107039779D01*
X161970245Y-106785106D01*
X162030000Y-106484700D01*
X162030000Y-104681892D01*
X167013514Y-104681892D01*
X167259817Y-105206358D01*
X167688076Y-105596645D01*
X168098110Y-105766476D01*
X168328000Y-105645155D01*
X168328000Y-104452000D01*
X167134181Y-104452000D01*
X167013514Y-104681892D01*
X162030000Y-104681892D01*
X162030000Y-103968108D01*
X167013514Y-103968108D01*
X167134181Y-104198000D01*
X168328000Y-104198000D01*
X168328000Y-103004845D01*
X168098110Y-102883524D01*
X167688076Y-103053355D01*
X167259817Y-103443642D01*
X167013514Y-103968108D01*
X162030000Y-103968108D01*
X162030000Y-100053317D01*
X162056800Y-100042243D01*
X162266663Y-99832745D01*
X162916861Y-99832745D01*
X162990995Y-100078864D01*
X163528223Y-100271965D01*
X164098454Y-100244778D01*
X164499005Y-100078864D01*
X164573139Y-99832745D01*
X163745000Y-99004605D01*
X162916861Y-99832745D01*
X162266663Y-99832745D01*
X162460824Y-99638923D01*
X162488423Y-99572456D01*
X162491136Y-99579005D01*
X162737255Y-99653139D01*
X163565395Y-98825000D01*
X163924605Y-98825000D01*
X164752745Y-99653139D01*
X164998864Y-99579005D01*
X165191965Y-99041777D01*
X165171341Y-98609187D01*
X166809752Y-98609187D01*
X167027757Y-99136800D01*
X167431077Y-99540824D01*
X167958309Y-99759750D01*
X168529187Y-99760248D01*
X169056800Y-99542243D01*
X169460824Y-99138923D01*
X169679750Y-98611691D01*
X169680248Y-98040813D01*
X169462243Y-97513200D01*
X169058923Y-97109176D01*
X168992456Y-97081577D01*
X168999005Y-97078864D01*
X169073139Y-96832745D01*
X168245000Y-96004605D01*
X167416861Y-96832745D01*
X167490995Y-97078864D01*
X167497483Y-97081196D01*
X167433200Y-97107757D01*
X167029176Y-97511077D01*
X166810250Y-98038309D01*
X166809752Y-98609187D01*
X165171341Y-98609187D01*
X165164778Y-98471546D01*
X164998864Y-98070995D01*
X164752745Y-97996861D01*
X163924605Y-98825000D01*
X163565395Y-98825000D01*
X162737255Y-97996861D01*
X162491136Y-98070995D01*
X162488804Y-98077483D01*
X162462243Y-98013200D01*
X162266640Y-97817255D01*
X162916861Y-97817255D01*
X163745000Y-98645395D01*
X164573139Y-97817255D01*
X164499005Y-97571136D01*
X163961777Y-97378035D01*
X163391546Y-97405222D01*
X162990995Y-97571136D01*
X162916861Y-97817255D01*
X162266640Y-97817255D01*
X162058923Y-97609176D01*
X161531691Y-97390250D01*
X160960813Y-97389752D01*
X160433200Y-97607757D01*
X160029176Y-98011077D01*
X159810250Y-98538309D01*
X159809752Y-99109187D01*
X160027757Y-99636800D01*
X160431077Y-100040824D01*
X160460000Y-100052834D01*
X160460000Y-106159542D01*
X156939921Y-109679621D01*
X156769755Y-109934293D01*
X156769755Y-109934294D01*
X156710000Y-110234700D01*
X156710000Y-110288404D01*
X156415853Y-110484946D01*
X156093946Y-110966715D01*
X155980907Y-111535000D01*
X156040984Y-111837026D01*
X149786703Y-105582745D01*
X150666861Y-105582745D01*
X150740995Y-105828864D01*
X151278223Y-106021965D01*
X151848454Y-105994778D01*
X152249005Y-105828864D01*
X152323139Y-105582745D01*
X151495000Y-104754605D01*
X150666861Y-105582745D01*
X149786703Y-105582745D01*
X148562181Y-104358223D01*
X150048035Y-104358223D01*
X150075222Y-104928454D01*
X150241136Y-105329005D01*
X150487255Y-105403139D01*
X151315395Y-104575000D01*
X151674605Y-104575000D01*
X152502745Y-105403139D01*
X152748864Y-105329005D01*
X152917735Y-104859187D01*
X155139752Y-104859187D01*
X155357757Y-105386800D01*
X155761077Y-105790824D01*
X156288309Y-106009750D01*
X156859187Y-106010248D01*
X157386800Y-105792243D01*
X157790824Y-105388923D01*
X158009750Y-104861691D01*
X158010248Y-104290813D01*
X157792243Y-103763200D01*
X157388923Y-103359176D01*
X156861691Y-103140250D01*
X156290813Y-103139752D01*
X155763200Y-103357757D01*
X155359176Y-103761077D01*
X155140250Y-104288309D01*
X155139752Y-104859187D01*
X152917735Y-104859187D01*
X152941965Y-104791777D01*
X152914778Y-104221546D01*
X152748864Y-103820995D01*
X152502745Y-103746861D01*
X151674605Y-104575000D01*
X151315395Y-104575000D01*
X150487255Y-103746861D01*
X150241136Y-103820995D01*
X150048035Y-104358223D01*
X148562181Y-104358223D01*
X147771213Y-103567255D01*
X150666861Y-103567255D01*
X151495000Y-104395395D01*
X152323139Y-103567255D01*
X152249005Y-103321136D01*
X151711777Y-103128035D01*
X151141546Y-103155222D01*
X150740995Y-103321136D01*
X150666861Y-103567255D01*
X147771213Y-103567255D01*
X143872800Y-99668842D01*
X143929750Y-99531691D01*
X143930248Y-98960813D01*
X143712243Y-98433200D01*
X143308923Y-98029176D01*
X142781691Y-97810250D01*
X142210813Y-97809752D01*
X141683200Y-98027757D01*
X141279176Y-98431077D01*
X141060250Y-98958309D01*
X141059752Y-99529187D01*
X141071711Y-99558131D01*
X140798242Y-99831600D01*
X140088436Y-99831600D01*
X140179750Y-99611691D01*
X140180248Y-99040813D01*
X139962243Y-98513200D01*
X139570000Y-98120272D01*
X139570000Y-95872132D01*
X139632780Y-95846192D01*
X140054710Y-95424997D01*
X140055095Y-95424069D01*
X140475003Y-95844710D01*
X141025602Y-96073339D01*
X141621782Y-96073859D01*
X142172780Y-95846192D01*
X142594710Y-95424997D01*
X142595095Y-95424069D01*
X143015003Y-95844710D01*
X143565602Y-96073339D01*
X144161782Y-96073859D01*
X144712780Y-95846192D01*
X145134710Y-95424997D01*
X145135095Y-95424069D01*
X145555003Y-95844710D01*
X146105602Y-96073339D01*
X146701782Y-96073859D01*
X147252780Y-95846192D01*
X147674710Y-95424997D01*
X147675095Y-95424069D01*
X148095003Y-95844710D01*
X148645602Y-96073339D01*
X149241782Y-96073859D01*
X149792780Y-95846192D01*
X150214710Y-95424997D01*
X150215095Y-95424069D01*
X150635003Y-95844710D01*
X151185602Y-96073339D01*
X151781782Y-96073859D01*
X152332780Y-95846192D01*
X152754710Y-95424997D01*
X152755095Y-95424069D01*
X153175003Y-95844710D01*
X153725602Y-96073339D01*
X154321782Y-96073859D01*
X154872780Y-95846192D01*
X155294710Y-95424997D01*
X155295095Y-95424069D01*
X155715003Y-95844710D01*
X156265602Y-96073339D01*
X156861782Y-96073859D01*
X157412780Y-95846192D01*
X157834710Y-95424997D01*
X157835095Y-95424069D01*
X158255003Y-95844710D01*
X158805602Y-96073339D01*
X159401782Y-96073859D01*
X159952780Y-95846192D01*
X160374710Y-95424997D01*
X160375095Y-95424069D01*
X160795003Y-95844710D01*
X161345602Y-96073339D01*
X161941782Y-96073859D01*
X162492780Y-95846192D01*
X162731164Y-95608223D01*
X166798035Y-95608223D01*
X166825222Y-96178454D01*
X166991136Y-96579005D01*
X167237255Y-96653139D01*
X168065395Y-95825000D01*
X167237255Y-94996861D01*
X166991136Y-95070995D01*
X166798035Y-95608223D01*
X162731164Y-95608223D01*
X162914710Y-95424997D01*
X163143339Y-94874398D01*
X163143859Y-94278218D01*
X162916192Y-93727220D01*
X162494997Y-93305290D01*
X162430000Y-93278301D01*
X162430000Y-82750158D01*
X166202316Y-78977842D01*
X166452875Y-79352828D01*
X166906094Y-79655660D01*
X167440703Y-79762000D01*
X167496739Y-79762000D01*
X167519755Y-79877707D01*
X167689921Y-80132379D01*
X168970400Y-81412858D01*
X168970400Y-94560854D01*
X168461777Y-94378035D01*
X167891546Y-94405222D01*
X167490995Y-94571136D01*
X167416861Y-94817255D01*
X168245000Y-95645395D01*
X168259142Y-95631252D01*
X168438748Y-95810858D01*
X168424605Y-95825000D01*
X169252745Y-96653139D01*
X169498864Y-96579005D01*
X169535876Y-96476034D01*
X171071371Y-98011528D01*
X171060250Y-98038309D01*
X171059752Y-98609187D01*
X171071711Y-98638131D01*
X170439921Y-99269921D01*
X170269755Y-99524593D01*
X170235840Y-99695093D01*
X170210000Y-99825000D01*
X170210000Y-102827560D01*
X170145000Y-102827560D01*
X169909683Y-102871838D01*
X169693559Y-103010910D01*
X169548569Y-103223110D01*
X169526699Y-103331107D01*
X169221924Y-103053355D01*
X168811890Y-102883524D01*
X168582000Y-103004845D01*
X168582000Y-104198000D01*
X168602000Y-104198000D01*
X168602000Y-104452000D01*
X168582000Y-104452000D01*
X168582000Y-105645155D01*
X168811890Y-105766476D01*
X169221924Y-105596645D01*
X169524937Y-105320499D01*
X169541838Y-105410317D01*
X169680910Y-105626441D01*
X169893110Y-105771431D01*
X170145000Y-105822440D01*
X171845000Y-105822440D01*
X172080317Y-105778162D01*
X172296441Y-105639090D01*
X172441431Y-105426890D01*
X172492440Y-105175000D01*
X172492440Y-103475000D01*
X172448162Y-103239683D01*
X172309090Y-103023559D01*
X172096890Y-102878569D01*
X171845000Y-102827560D01*
X171780000Y-102827560D01*
X171780000Y-100150158D01*
X172181528Y-99748630D01*
X172208309Y-99759750D01*
X172779187Y-99760248D01*
X173306800Y-99542243D01*
X173710824Y-99138923D01*
X173929750Y-98611691D01*
X173930248Y-98040813D01*
X173712243Y-97513200D01*
X173308923Y-97109176D01*
X173242456Y-97081577D01*
X173249005Y-97078864D01*
X173323139Y-96832745D01*
X172495000Y-96004605D01*
X172480858Y-96018748D01*
X172301252Y-95839142D01*
X172315395Y-95825000D01*
X172674605Y-95825000D01*
X173502745Y-96653139D01*
X173748864Y-96579005D01*
X173941965Y-96041777D01*
X173914778Y-95471546D01*
X173748864Y-95070995D01*
X173502745Y-94996861D01*
X172674605Y-95825000D01*
X172315395Y-95825000D01*
X171487255Y-94996861D01*
X171241136Y-95070995D01*
X171048035Y-95608223D01*
X171056028Y-95775870D01*
X170540400Y-95260242D01*
X170540400Y-94817255D01*
X171666861Y-94817255D01*
X172495000Y-95645395D01*
X173323139Y-94817255D01*
X173249005Y-94571136D01*
X172711777Y-94378035D01*
X172141546Y-94405222D01*
X171740995Y-94571136D01*
X171666861Y-94817255D01*
X170540400Y-94817255D01*
X170540400Y-81087700D01*
X170480645Y-80787294D01*
X170480645Y-80787293D01*
X170310479Y-80532621D01*
X169458469Y-79680611D01*
X169583906Y-79655660D01*
X170037125Y-79352828D01*
X170339957Y-78899609D01*
X170446297Y-78365000D01*
X170339957Y-77830391D01*
X170037125Y-77377172D01*
X169614826Y-77095000D01*
X170037125Y-76812828D01*
X170339957Y-76359609D01*
X170446297Y-75825000D01*
X170339957Y-75290391D01*
X170037125Y-74837172D01*
X169599338Y-74544651D01*
X169658941Y-74527059D01*
X170084630Y-74183026D01*
X170346260Y-73702277D01*
X170361220Y-73628070D01*
X170238720Y-73412000D01*
X168372000Y-73412000D01*
X168372000Y-73432000D01*
X168118000Y-73432000D01*
X168118000Y-73412000D01*
X168098000Y-73412000D01*
X168098000Y-73158000D01*
X168118000Y-73158000D01*
X168118000Y-71888000D01*
X168372000Y-71888000D01*
X168372000Y-73158000D01*
X170238720Y-73158000D01*
X170361220Y-72941930D01*
X170346260Y-72867723D01*
X170084630Y-72386974D01*
X169658941Y-72042941D01*
X169134000Y-71888000D01*
X168372000Y-71888000D01*
X168118000Y-71888000D01*
X167356000Y-71888000D01*
X166831059Y-72042941D01*
X166405370Y-72386974D01*
X166233305Y-72703147D01*
X161618751Y-68088593D01*
X161679750Y-67941691D01*
X161680248Y-67370813D01*
X161462243Y-66843200D01*
X161058923Y-66439176D01*
X161030000Y-66427166D01*
X161030000Y-66237300D01*
X160970245Y-65936894D01*
X160800079Y-65682221D01*
X157977045Y-62859187D01*
X158809752Y-62859187D01*
X159027757Y-63386800D01*
X159431077Y-63790824D01*
X159958309Y-64009750D01*
X160529187Y-64010248D01*
X161056800Y-63792243D01*
X161460824Y-63388923D01*
X161679750Y-62861691D01*
X161680248Y-62290813D01*
X161462243Y-61763200D01*
X161058923Y-61359176D01*
X160531691Y-61140250D01*
X159960813Y-61139752D01*
X159433200Y-61357757D01*
X159029176Y-61761077D01*
X158810250Y-62288309D01*
X158809752Y-62859187D01*
X157977045Y-62859187D01*
X156320079Y-61202221D01*
X156065407Y-61032055D01*
X155765000Y-60972300D01*
X150982700Y-60972300D01*
X150682293Y-61032055D01*
X150427621Y-61202221D01*
X150001918Y-61627924D01*
X149665000Y-61560907D01*
X149096715Y-61673946D01*
X148614946Y-61995853D01*
X148293039Y-62477622D01*
X148180000Y-63045907D01*
X148180000Y-63104093D01*
X148293039Y-63672378D01*
X148614946Y-64154147D01*
X149096715Y-64476054D01*
X149665000Y-64589093D01*
X149934320Y-64535522D01*
X144227132Y-70242710D01*
X144164398Y-70216661D01*
X143568218Y-70216141D01*
X143017220Y-70443808D01*
X142595290Y-70865003D01*
X142594905Y-70865931D01*
X142174997Y-70445290D01*
X141624398Y-70216661D01*
X141028218Y-70216141D01*
X140477220Y-70443808D01*
X140055290Y-70865003D01*
X140054905Y-70865931D01*
X139634997Y-70445290D01*
X139084398Y-70216661D01*
X138488218Y-70216141D01*
X137937220Y-70443808D01*
X137515290Y-70865003D01*
X137514905Y-70865931D01*
X137094997Y-70445290D01*
X136544398Y-70216661D01*
X136530000Y-70216648D01*
X136530000Y-68883317D01*
X136556800Y-68872243D01*
X136960824Y-68468923D01*
X137179750Y-67941691D01*
X137179752Y-67939187D01*
X138309752Y-67939187D01*
X138527757Y-68466800D01*
X138931077Y-68870824D01*
X139458309Y-69089750D01*
X140029187Y-69090248D01*
X140556800Y-68872243D01*
X140960824Y-68468923D01*
X141179750Y-67941691D01*
X141180248Y-67370813D01*
X140962243Y-66843200D01*
X140558923Y-66439176D01*
X140031691Y-66220250D01*
X139460813Y-66219752D01*
X138933200Y-66437757D01*
X138529176Y-66841077D01*
X138310250Y-67368309D01*
X138309752Y-67939187D01*
X137179752Y-67939187D01*
X137180248Y-67370813D01*
X136962243Y-66843200D01*
X136558923Y-66439176D01*
X136031691Y-66220250D01*
X135460813Y-66219752D01*
X134933200Y-66437757D01*
X134529176Y-66841077D01*
X134310250Y-67368309D01*
X134309752Y-67939187D01*
X134527757Y-68466800D01*
X134931077Y-68870824D01*
X134960000Y-68882834D01*
X134960000Y-70901825D01*
X134746661Y-71415602D01*
X134746141Y-72011782D01*
X134973808Y-72562780D01*
X135395003Y-72984710D01*
X135945602Y-73213339D01*
X136541782Y-73213859D01*
X137092780Y-72986192D01*
X137514710Y-72564997D01*
X137515095Y-72564069D01*
X137935003Y-72984710D01*
X138000000Y-73011699D01*
X138000000Y-86695142D01*
X133289400Y-91405742D01*
X133289400Y-88988758D01*
X133342868Y-88935290D01*
X133405602Y-88961339D01*
X134001782Y-88961859D01*
X134552780Y-88734192D01*
X134974710Y-88312997D01*
X135203339Y-87762398D01*
X135203859Y-87166218D01*
X134976192Y-86615220D01*
X134554997Y-86193290D01*
X134554069Y-86192905D01*
X134974710Y-85772997D01*
X135203339Y-85222398D01*
X135203859Y-84626218D01*
X134976192Y-84075220D01*
X134554997Y-83653290D01*
X134554069Y-83652905D01*
X134974710Y-83232997D01*
X135203339Y-82682398D01*
X135203859Y-82086218D01*
X134976192Y-81535220D01*
X134554997Y-81113290D01*
X134514463Y-81096459D01*
X134579200Y-80896805D01*
X133705000Y-80022605D01*
X132830800Y-80896805D01*
X132895399Y-81096033D01*
X132857220Y-81111808D01*
X132435290Y-81533003D01*
X132206661Y-82083602D01*
X132206460Y-82314302D01*
X129503188Y-79611030D01*
X132194752Y-79611030D01*
X132220942Y-80206635D01*
X132398484Y-80635259D01*
X132651195Y-80717200D01*
X133525395Y-79843000D01*
X133884605Y-79843000D01*
X134758805Y-80717200D01*
X135011516Y-80635259D01*
X135215248Y-80074970D01*
X135189058Y-79479365D01*
X135011516Y-79050741D01*
X134758805Y-78968800D01*
X133884605Y-79843000D01*
X133525395Y-79843000D01*
X132651195Y-78968800D01*
X132398484Y-79050741D01*
X132194752Y-79611030D01*
X129503188Y-79611030D01*
X128681353Y-78789195D01*
X132830800Y-78789195D01*
X133705000Y-79663395D01*
X134579200Y-78789195D01*
X134497259Y-78536484D01*
X133936970Y-78332752D01*
X133341365Y-78358942D01*
X132912741Y-78536484D01*
X132830800Y-78789195D01*
X128681353Y-78789195D01*
X126832079Y-76939921D01*
X126577407Y-76769755D01*
X126277000Y-76710000D01*
X126001250Y-76710000D01*
X125824147Y-76444946D01*
X125494974Y-76225000D01*
X125824147Y-76005054D01*
X126146054Y-75523285D01*
X126259093Y-74955000D01*
X126146054Y-74386715D01*
X125824147Y-73904946D01*
X125483447Y-73677298D01*
X125626358Y-73610183D01*
X126016645Y-73181924D01*
X126186476Y-72771890D01*
X126065155Y-72542000D01*
X124872000Y-72542000D01*
X124872000Y-72562000D01*
X124618000Y-72562000D01*
X124618000Y-72542000D01*
X123424845Y-72542000D01*
X123303524Y-72771890D01*
X123473355Y-73181924D01*
X123863642Y-73610183D01*
X124006553Y-73677298D01*
X123665853Y-73904946D01*
X123343946Y-74386715D01*
X123230907Y-74955000D01*
X110710000Y-74955000D01*
X110710000Y-72058110D01*
X123303524Y-72058110D01*
X123424845Y-72288000D01*
X124618000Y-72288000D01*
X124618000Y-71094181D01*
X124872000Y-71094181D01*
X124872000Y-72288000D01*
X126065155Y-72288000D01*
X126186476Y-72058110D01*
X126016645Y-71648076D01*
X125626358Y-71219817D01*
X125101892Y-70973514D01*
X124872000Y-71094181D01*
X124618000Y-71094181D01*
X124388108Y-70973514D01*
X123863642Y-71219817D01*
X123473355Y-71648076D01*
X123303524Y-72058110D01*
X110710000Y-72058110D01*
X110710000Y-63582745D01*
X134916861Y-63582745D01*
X134990995Y-63828864D01*
X135528223Y-64021965D01*
X136098454Y-63994778D01*
X136499005Y-63828864D01*
X136573139Y-63582745D01*
X135745000Y-62754605D01*
X134916861Y-63582745D01*
X110710000Y-63582745D01*
X110710000Y-62358223D01*
X134298035Y-62358223D01*
X134325222Y-62928454D01*
X134491136Y-63329005D01*
X134737255Y-63403139D01*
X135565395Y-62575000D01*
X135924605Y-62575000D01*
X136752745Y-63403139D01*
X136998864Y-63329005D01*
X137167735Y-62859187D01*
X138309752Y-62859187D01*
X138527757Y-63386800D01*
X138931077Y-63790824D01*
X139458309Y-64009750D01*
X140029187Y-64010248D01*
X140556800Y-63792243D01*
X140960824Y-63388923D01*
X141179750Y-62861691D01*
X141180248Y-62290813D01*
X140962243Y-61763200D01*
X140558923Y-61359176D01*
X140031691Y-61140250D01*
X139460813Y-61139752D01*
X138933200Y-61357757D01*
X138529176Y-61761077D01*
X138310250Y-62288309D01*
X138309752Y-62859187D01*
X137167735Y-62859187D01*
X137191965Y-62791777D01*
X137164778Y-62221546D01*
X136998864Y-61820995D01*
X136752745Y-61746861D01*
X135924605Y-62575000D01*
X135565395Y-62575000D01*
X134737255Y-61746861D01*
X134491136Y-61820995D01*
X134298035Y-62358223D01*
X110710000Y-62358223D01*
X110710000Y-61567255D01*
X134916861Y-61567255D01*
X135745000Y-62395395D01*
X136573139Y-61567255D01*
X136499005Y-61321136D01*
X135961777Y-61128035D01*
X135391546Y-61155222D01*
X134990995Y-61321136D01*
X134916861Y-61567255D01*
X110710000Y-61567255D01*
X110710000Y-60710000D01*
X179290000Y-60710000D01*
X179290000Y-119290000D01*
G36*
X142208309Y-100679750D02*
X142663789Y-100680147D01*
X152098089Y-110114447D01*
X151774093Y-110050000D01*
X151715907Y-110050000D01*
X151147622Y-110163039D01*
X150665853Y-110484946D01*
X150343946Y-110966715D01*
X150230907Y-111535000D01*
X150343946Y-112103285D01*
X150665853Y-112585054D01*
X150707452Y-112612850D01*
X150659683Y-112621838D01*
X150443559Y-112760910D01*
X150361242Y-112881384D01*
X143114455Y-105634597D01*
X143249005Y-105578864D01*
X143323139Y-105332745D01*
X142495000Y-104504605D01*
X142480858Y-104518748D01*
X142301252Y-104339142D01*
X142315395Y-104325000D01*
X142674605Y-104325000D01*
X143502745Y-105153139D01*
X143748864Y-105079005D01*
X143941965Y-104541777D01*
X143914778Y-103971546D01*
X143748864Y-103570995D01*
X143502745Y-103496861D01*
X142674605Y-104325000D01*
X142315395Y-104325000D01*
X141487255Y-103496861D01*
X141241136Y-103570995D01*
X141190825Y-103710967D01*
X140797113Y-103317255D01*
X141666861Y-103317255D01*
X142495000Y-104145395D01*
X143323139Y-103317255D01*
X143249005Y-103071136D01*
X142711777Y-102878035D01*
X142141546Y-102905222D01*
X141740995Y-103071136D01*
X141666861Y-103317255D01*
X140797113Y-103317255D01*
X139703579Y-102223721D01*
X139448907Y-102053555D01*
X139148500Y-101993800D01*
X136213158Y-101993800D01*
X135620958Y-101401600D01*
X141123400Y-101401600D01*
X141423807Y-101341845D01*
X141678479Y-101171679D01*
X142181528Y-100668630D01*
X142208309Y-100679750D01*
X142208309Y-100679750D01*
G37*
X142208309Y-100679750D02*
X142663789Y-100680147D01*
X152098089Y-110114447D01*
X151774093Y-110050000D01*
X151715907Y-110050000D01*
X151147622Y-110163039D01*
X150665853Y-110484946D01*
X150343946Y-110966715D01*
X150230907Y-111535000D01*
X150343946Y-112103285D01*
X150665853Y-112585054D01*
X150707452Y-112612850D01*
X150659683Y-112621838D01*
X150443559Y-112760910D01*
X150361242Y-112881384D01*
X143114455Y-105634597D01*
X143249005Y-105578864D01*
X143323139Y-105332745D01*
X142495000Y-104504605D01*
X142480858Y-104518748D01*
X142301252Y-104339142D01*
X142315395Y-104325000D01*
X142674605Y-104325000D01*
X143502745Y-105153139D01*
X143748864Y-105079005D01*
X143941965Y-104541777D01*
X143914778Y-103971546D01*
X143748864Y-103570995D01*
X143502745Y-103496861D01*
X142674605Y-104325000D01*
X142315395Y-104325000D01*
X141487255Y-103496861D01*
X141241136Y-103570995D01*
X141190825Y-103710967D01*
X140797113Y-103317255D01*
X141666861Y-103317255D01*
X142495000Y-104145395D01*
X143323139Y-103317255D01*
X143249005Y-103071136D01*
X142711777Y-102878035D01*
X142141546Y-102905222D01*
X141740995Y-103071136D01*
X141666861Y-103317255D01*
X140797113Y-103317255D01*
X139703579Y-102223721D01*
X139448907Y-102053555D01*
X139148500Y-101993800D01*
X136213158Y-101993800D01*
X135620958Y-101401600D01*
X141123400Y-101401600D01*
X141423807Y-101341845D01*
X141678479Y-101171679D01*
X142181528Y-100668630D01*
X142208309Y-100679750D01*
G36*
X154872000Y-62948000D02*
X154892000Y-62948000D01*
X154892000Y-63202000D01*
X154872000Y-63202000D01*
X154872000Y-64401250D01*
X155030750Y-64560000D01*
X155721310Y-64560000D01*
X155954699Y-64463327D01*
X156133327Y-64284698D01*
X156230000Y-64051309D01*
X156230000Y-63360750D01*
X156071252Y-63202002D01*
X156099544Y-63202002D01*
X159384207Y-66486665D01*
X159029176Y-66841077D01*
X158810250Y-67368309D01*
X158809752Y-67939187D01*
X159027757Y-68466800D01*
X159431077Y-68870824D01*
X159958309Y-69089750D01*
X160399977Y-69090135D01*
X161529857Y-70220015D01*
X161281365Y-70230942D01*
X160852741Y-70408484D01*
X160770800Y-70661195D01*
X161645000Y-71535395D01*
X161659143Y-71521253D01*
X161838748Y-71700858D01*
X161824605Y-71715000D01*
X162698805Y-72589200D01*
X162951516Y-72507259D01*
X163155248Y-71946970D01*
X163150577Y-71840735D01*
X166330364Y-75020522D01*
X166150043Y-75290391D01*
X166043703Y-75825000D01*
X166150043Y-76359609D01*
X166330364Y-76629478D01*
X161089921Y-81869921D01*
X160919755Y-82124593D01*
X160919755Y-82124594D01*
X160860000Y-82425000D01*
X160860000Y-93277868D01*
X160797220Y-93303808D01*
X160375290Y-93725003D01*
X160374905Y-93725931D01*
X159954997Y-93305290D01*
X159404398Y-93076661D01*
X158808218Y-93076141D01*
X158257220Y-93303808D01*
X157835290Y-93725003D01*
X157834905Y-93725931D01*
X157414997Y-93305290D01*
X156864398Y-93076661D01*
X156268218Y-93076141D01*
X155717220Y-93303808D01*
X155295290Y-93725003D01*
X155294905Y-93725931D01*
X154874997Y-93305290D01*
X154324398Y-93076661D01*
X153728218Y-93076141D01*
X153177220Y-93303808D01*
X152755290Y-93725003D01*
X152754905Y-93725931D01*
X152334997Y-93305290D01*
X151784398Y-93076661D01*
X151188218Y-93076141D01*
X150637220Y-93303808D01*
X150215290Y-93725003D01*
X150214905Y-93725931D01*
X149794997Y-93305290D01*
X149244398Y-93076661D01*
X148648218Y-93076141D01*
X148097220Y-93303808D01*
X147675290Y-93725003D01*
X147674905Y-93725931D01*
X147254997Y-93305290D01*
X146704398Y-93076661D01*
X146108218Y-93076141D01*
X145557220Y-93303808D01*
X145135290Y-93725003D01*
X145134905Y-93725931D01*
X144714997Y-93305290D01*
X144164398Y-93076661D01*
X143568218Y-93076141D01*
X143017220Y-93303808D01*
X142595290Y-93725003D01*
X142594905Y-93725931D01*
X142174997Y-93305290D01*
X141624398Y-93076661D01*
X141028218Y-93076141D01*
X140477220Y-93303808D01*
X140055290Y-93725003D01*
X140054905Y-93725931D01*
X139634997Y-93305290D01*
X139084398Y-93076661D01*
X138488218Y-93076141D01*
X137937220Y-93303808D01*
X137720124Y-93520525D01*
X137711762Y-93476083D01*
X137572690Y-93259959D01*
X137360490Y-93114969D01*
X137108600Y-93063960D01*
X135381400Y-93063960D01*
X135228165Y-93092793D01*
X141880079Y-86440879D01*
X142050245Y-86186207D01*
X142110000Y-85885800D01*
X142110000Y-73012132D01*
X142172780Y-72986192D01*
X142594710Y-72564997D01*
X142595095Y-72564069D01*
X143015003Y-72984710D01*
X143565602Y-73213339D01*
X144161782Y-73213859D01*
X144712780Y-72986192D01*
X145134710Y-72564997D01*
X145135095Y-72564069D01*
X145555003Y-72984710D01*
X146105602Y-73213339D01*
X146701782Y-73213859D01*
X147252780Y-72986192D01*
X147674710Y-72564997D01*
X147675095Y-72564069D01*
X148095003Y-72984710D01*
X148645602Y-73213339D01*
X149241782Y-73213859D01*
X149792780Y-72986192D01*
X150214710Y-72564997D01*
X150215095Y-72564069D01*
X150635003Y-72984710D01*
X151185602Y-73213339D01*
X151781782Y-73213859D01*
X152332780Y-72986192D01*
X152754710Y-72564997D01*
X152755095Y-72564069D01*
X153175003Y-72984710D01*
X153725602Y-73213339D01*
X154321782Y-73213859D01*
X154872780Y-72986192D01*
X155294710Y-72564997D01*
X155295095Y-72564069D01*
X155715003Y-72984710D01*
X156265602Y-73213339D01*
X156861782Y-73213859D01*
X157412780Y-72986192D01*
X157630546Y-72768805D01*
X158230800Y-72768805D01*
X158312741Y-73021516D01*
X158873030Y-73225248D01*
X159468635Y-73199058D01*
X159897259Y-73021516D01*
X159979200Y-72768805D01*
X160770800Y-72768805D01*
X160852741Y-73021516D01*
X161413030Y-73225248D01*
X162008635Y-73199058D01*
X162437259Y-73021516D01*
X162519200Y-72768805D01*
X161645000Y-71894605D01*
X160770800Y-72768805D01*
X159979200Y-72768805D01*
X159105000Y-71894605D01*
X158230800Y-72768805D01*
X157630546Y-72768805D01*
X157834710Y-72564997D01*
X157851541Y-72524463D01*
X158051195Y-72589200D01*
X158925395Y-71715000D01*
X159284605Y-71715000D01*
X160158805Y-72589200D01*
X160375000Y-72519099D01*
X160591195Y-72589200D01*
X161465395Y-71715000D01*
X160591195Y-70840800D01*
X160375000Y-70910901D01*
X160158805Y-70840800D01*
X159284605Y-71715000D01*
X158925395Y-71715000D01*
X158051195Y-70840800D01*
X157851967Y-70905399D01*
X157836192Y-70867220D01*
X157630526Y-70661195D01*
X158230800Y-70661195D01*
X159105000Y-71535395D01*
X159979200Y-70661195D01*
X159897259Y-70408484D01*
X159336970Y-70204752D01*
X158741365Y-70230942D01*
X158312741Y-70408484D01*
X158230800Y-70661195D01*
X157630526Y-70661195D01*
X157414997Y-70445290D01*
X156864398Y-70216661D01*
X156268218Y-70216141D01*
X155717220Y-70443808D01*
X155295290Y-70865003D01*
X155294905Y-70865931D01*
X154874997Y-70445290D01*
X154324398Y-70216661D01*
X153728218Y-70216141D01*
X153177220Y-70443808D01*
X152755290Y-70865003D01*
X152754905Y-70865931D01*
X152334997Y-70445290D01*
X151784398Y-70216661D01*
X151188218Y-70216141D01*
X150637220Y-70443808D01*
X150215290Y-70865003D01*
X150214905Y-70865931D01*
X149794997Y-70445290D01*
X149244398Y-70216661D01*
X148648218Y-70216141D01*
X148097220Y-70443808D01*
X147675290Y-70865003D01*
X147674905Y-70865931D01*
X147254997Y-70445290D01*
X146704398Y-70216661D01*
X146473698Y-70216460D01*
X151529858Y-65160300D01*
X152205000Y-65160300D01*
X152505406Y-65100545D01*
X152760079Y-64930379D01*
X152930245Y-64675706D01*
X152990000Y-64375300D01*
X152990000Y-64331250D01*
X153255054Y-64154147D01*
X153284403Y-64110223D01*
X153356673Y-64284698D01*
X153535301Y-64463327D01*
X153768690Y-64560000D01*
X154459250Y-64560000D01*
X154618000Y-64401250D01*
X154618000Y-63202000D01*
X154598000Y-63202000D01*
X154598000Y-62948000D01*
X154618000Y-62948000D01*
X154618000Y-62928000D01*
X154872000Y-62928000D01*
X154872000Y-62948000D01*
X154872000Y-62948000D01*
G37*
X154872000Y-62948000D02*
X154892000Y-62948000D01*
X154892000Y-63202000D01*
X154872000Y-63202000D01*
X154872000Y-64401250D01*
X155030750Y-64560000D01*
X155721310Y-64560000D01*
X155954699Y-64463327D01*
X156133327Y-64284698D01*
X156230000Y-64051309D01*
X156230000Y-63360750D01*
X156071252Y-63202002D01*
X156099544Y-63202002D01*
X159384207Y-66486665D01*
X159029176Y-66841077D01*
X158810250Y-67368309D01*
X158809752Y-67939187D01*
X159027757Y-68466800D01*
X159431077Y-68870824D01*
X159958309Y-69089750D01*
X160399977Y-69090135D01*
X161529857Y-70220015D01*
X161281365Y-70230942D01*
X160852741Y-70408484D01*
X160770800Y-70661195D01*
X161645000Y-71535395D01*
X161659143Y-71521253D01*
X161838748Y-71700858D01*
X161824605Y-71715000D01*
X162698805Y-72589200D01*
X162951516Y-72507259D01*
X163155248Y-71946970D01*
X163150577Y-71840735D01*
X166330364Y-75020522D01*
X166150043Y-75290391D01*
X166043703Y-75825000D01*
X166150043Y-76359609D01*
X166330364Y-76629478D01*
X161089921Y-81869921D01*
X160919755Y-82124593D01*
X160919755Y-82124594D01*
X160860000Y-82425000D01*
X160860000Y-93277868D01*
X160797220Y-93303808D01*
X160375290Y-93725003D01*
X160374905Y-93725931D01*
X159954997Y-93305290D01*
X159404398Y-93076661D01*
X158808218Y-93076141D01*
X158257220Y-93303808D01*
X157835290Y-93725003D01*
X157834905Y-93725931D01*
X157414997Y-93305290D01*
X156864398Y-93076661D01*
X156268218Y-93076141D01*
X155717220Y-93303808D01*
X155295290Y-93725003D01*
X155294905Y-93725931D01*
X154874997Y-93305290D01*
X154324398Y-93076661D01*
X153728218Y-93076141D01*
X153177220Y-93303808D01*
X152755290Y-93725003D01*
X152754905Y-93725931D01*
X152334997Y-93305290D01*
X151784398Y-93076661D01*
X151188218Y-93076141D01*
X150637220Y-93303808D01*
X150215290Y-93725003D01*
X150214905Y-93725931D01*
X149794997Y-93305290D01*
X149244398Y-93076661D01*
X148648218Y-93076141D01*
X148097220Y-93303808D01*
X147675290Y-93725003D01*
X147674905Y-93725931D01*
X147254997Y-93305290D01*
X146704398Y-93076661D01*
X146108218Y-93076141D01*
X145557220Y-93303808D01*
X145135290Y-93725003D01*
X145134905Y-93725931D01*
X144714997Y-93305290D01*
X144164398Y-93076661D01*
X143568218Y-93076141D01*
X143017220Y-93303808D01*
X142595290Y-93725003D01*
X142594905Y-93725931D01*
X142174997Y-93305290D01*
X141624398Y-93076661D01*
X141028218Y-93076141D01*
X140477220Y-93303808D01*
X140055290Y-93725003D01*
X140054905Y-93725931D01*
X139634997Y-93305290D01*
X139084398Y-93076661D01*
X138488218Y-93076141D01*
X137937220Y-93303808D01*
X137720124Y-93520525D01*
X137711762Y-93476083D01*
X137572690Y-93259959D01*
X137360490Y-93114969D01*
X137108600Y-93063960D01*
X135381400Y-93063960D01*
X135228165Y-93092793D01*
X141880079Y-86440879D01*
X142050245Y-86186207D01*
X142110000Y-85885800D01*
X142110000Y-73012132D01*
X142172780Y-72986192D01*
X142594710Y-72564997D01*
X142595095Y-72564069D01*
X143015003Y-72984710D01*
X143565602Y-73213339D01*
X144161782Y-73213859D01*
X144712780Y-72986192D01*
X145134710Y-72564997D01*
X145135095Y-72564069D01*
X145555003Y-72984710D01*
X146105602Y-73213339D01*
X146701782Y-73213859D01*
X147252780Y-72986192D01*
X147674710Y-72564997D01*
X147675095Y-72564069D01*
X148095003Y-72984710D01*
X148645602Y-73213339D01*
X149241782Y-73213859D01*
X149792780Y-72986192D01*
X150214710Y-72564997D01*
X150215095Y-72564069D01*
X150635003Y-72984710D01*
X151185602Y-73213339D01*
X151781782Y-73213859D01*
X152332780Y-72986192D01*
X152754710Y-72564997D01*
X152755095Y-72564069D01*
X153175003Y-72984710D01*
X153725602Y-73213339D01*
X154321782Y-73213859D01*
X154872780Y-72986192D01*
X155294710Y-72564997D01*
X155295095Y-72564069D01*
X155715003Y-72984710D01*
X156265602Y-73213339D01*
X156861782Y-73213859D01*
X157412780Y-72986192D01*
X157630546Y-72768805D01*
X158230800Y-72768805D01*
X158312741Y-73021516D01*
X158873030Y-73225248D01*
X159468635Y-73199058D01*
X159897259Y-73021516D01*
X159979200Y-72768805D01*
X160770800Y-72768805D01*
X160852741Y-73021516D01*
X161413030Y-73225248D01*
X162008635Y-73199058D01*
X162437259Y-73021516D01*
X162519200Y-72768805D01*
X161645000Y-71894605D01*
X160770800Y-72768805D01*
X159979200Y-72768805D01*
X159105000Y-71894605D01*
X158230800Y-72768805D01*
X157630546Y-72768805D01*
X157834710Y-72564997D01*
X157851541Y-72524463D01*
X158051195Y-72589200D01*
X158925395Y-71715000D01*
X159284605Y-71715000D01*
X160158805Y-72589200D01*
X160375000Y-72519099D01*
X160591195Y-72589200D01*
X161465395Y-71715000D01*
X160591195Y-70840800D01*
X160375000Y-70910901D01*
X160158805Y-70840800D01*
X159284605Y-71715000D01*
X158925395Y-71715000D01*
X158051195Y-70840800D01*
X157851967Y-70905399D01*
X157836192Y-70867220D01*
X157630526Y-70661195D01*
X158230800Y-70661195D01*
X159105000Y-71535395D01*
X159979200Y-70661195D01*
X159897259Y-70408484D01*
X159336970Y-70204752D01*
X158741365Y-70230942D01*
X158312741Y-70408484D01*
X158230800Y-70661195D01*
X157630526Y-70661195D01*
X157414997Y-70445290D01*
X156864398Y-70216661D01*
X156268218Y-70216141D01*
X155717220Y-70443808D01*
X155295290Y-70865003D01*
X155294905Y-70865931D01*
X154874997Y-70445290D01*
X154324398Y-70216661D01*
X153728218Y-70216141D01*
X153177220Y-70443808D01*
X152755290Y-70865003D01*
X152754905Y-70865931D01*
X152334997Y-70445290D01*
X151784398Y-70216661D01*
X151188218Y-70216141D01*
X150637220Y-70443808D01*
X150215290Y-70865003D01*
X150214905Y-70865931D01*
X149794997Y-70445290D01*
X149244398Y-70216661D01*
X148648218Y-70216141D01*
X148097220Y-70443808D01*
X147675290Y-70865003D01*
X147674905Y-70865931D01*
X147254997Y-70445290D01*
X146704398Y-70216661D01*
X146473698Y-70216460D01*
X151529858Y-65160300D01*
X152205000Y-65160300D01*
X152505406Y-65100545D01*
X152760079Y-64930379D01*
X152930245Y-64675706D01*
X152990000Y-64375300D01*
X152990000Y-64331250D01*
X153255054Y-64154147D01*
X153284403Y-64110223D01*
X153356673Y-64284698D01*
X153535301Y-64463327D01*
X153768690Y-64560000D01*
X154459250Y-64560000D01*
X154618000Y-64401250D01*
X154618000Y-63202000D01*
X154598000Y-63202000D01*
X154598000Y-62948000D01*
X154618000Y-62948000D01*
X154618000Y-62928000D01*
X154872000Y-62928000D01*
X154872000Y-62948000D01*
M02*
