M48
;DRILL file {KiCad 4.0.6} date Friday, 23. June 2017 23:59:19
;FORMAT={-:-/ absolute / inch / decimal}
FMAT,2
INCH,TZ
T1C0.031
T2C0.032
T3C0.035
T4C0.039
T5C0.040
%
G90
G05
M72
T1
X5.1671Y-3.9073
X5.1671Y-4.1073
X5.3148Y-3.9073
X5.3148Y-4.1073
X5.3443Y-2.4636
X5.3443Y-2.6636
X5.4624Y-3.9104
X5.4624Y-4.1104
X5.5018Y-2.4636
X5.5018Y-2.6636
X5.61Y-3.9073
X5.61Y-4.1073
X5.9644Y-4.1171
X6.1644Y-4.1171
X6.3089Y-2.4636
X6.3089Y-2.6636
X6.3482Y-3.8907
X6.4467Y-3.8907
X6.6238Y-3.7726
X6.6238Y-3.8711
X6.7911Y-3.7726
X6.7911Y-3.8711
T2
X4.5372Y-3.5266
X4.5372Y-3.7234
X5.0293Y-3.5266
X5.0293Y-3.7234
T3
X4.9801Y-4.0762
X4.9801Y-4.1762
T4
X4.9112Y-2.851
X4.9112Y-2.951
X4.9112Y-3.051
X4.9112Y-3.151
X4.9112Y-3.251
X5.8923Y-2.4833
X5.9742Y-4.3911
X5.9742Y-4.4911
X5.9923Y-2.4833
X6.0923Y-2.4833
X6.2006Y-4.3911
X6.2006Y-4.4911
X6.6321Y-4.1073
X6.7321Y-4.1073
T5
X5.264Y-3.1434
X5.264Y-3.2434
X5.264Y-3.3434
X5.264Y-3.4434
X5.364Y-2.8234
X5.364Y-3.7234
X5.464Y-2.8234
X5.464Y-3.7234
X5.564Y-2.8234
X5.564Y-3.7234
X5.664Y-2.8234
X5.664Y-3.7234
X5.764Y-2.8234
X5.764Y-3.7234
X5.864Y-2.8234
X5.864Y-3.7234
X5.964Y-2.8234
X5.964Y-3.7234
X6.064Y-2.8234
X6.064Y-3.7234
X6.164Y-2.8234
X6.164Y-3.7234
X6.264Y-2.8234
X6.264Y-3.7234
X6.364Y-2.8234
X6.364Y-3.7234
X6.6238Y-2.8852
X6.6238Y-2.9852
X6.6238Y-3.0852
T0
M30
