G04 #@! TF.FileFunction,Legend,Top*
%FSLAX46Y46*%
G04 Gerber Fmt 4.6, Leading zero omitted, Abs format (unit mm)*
G04 Created by KiCad (PCBNEW 4.0.6) date Saturday, 24. June 2017 00:02:07*
%MOMM*%
%LPD*%
G01*
G04 APERTURE LIST*
%ADD10C,0.100000*%
%ADD11C,0.120000*%
%ADD12C,0.152400*%
%ADD13C,0.381000*%
%ADD14C,0.203200*%
%ADD15C,0.150000*%
%ADD16C,0.050000*%
G04 APERTURE END LIST*
D10*
D11*
X141075000Y-60865000D02*
X141075000Y-69365000D01*
X138415000Y-60865000D02*
X138415000Y-69365000D01*
X141075000Y-60865000D02*
X138415000Y-60865000D01*
X141075000Y-69365000D02*
X138415000Y-69365000D01*
X171634000Y-97662000D02*
X171634000Y-96488000D01*
X173356000Y-97662000D02*
X173356000Y-96488000D01*
X167384000Y-97662000D02*
X167384000Y-96488000D01*
X169106000Y-97662000D02*
X169106000Y-96488000D01*
X163082000Y-99686000D02*
X161908000Y-99686000D01*
X163082000Y-97964000D02*
X161908000Y-97964000D01*
X125416392Y-103132665D02*
G75*
G03X125259484Y-106365000I1078608J-1672335D01*
G01*
X127573608Y-103132665D02*
G75*
G02X127730516Y-106365000I-1078608J-1672335D01*
G01*
X125415163Y-103763870D02*
G75*
G03X125415000Y-105845961I1079837J-1041130D01*
G01*
X127574837Y-103763870D02*
G75*
G02X127575000Y-105845961I-1079837J-1041130D01*
G01*
X125259000Y-106365000D02*
X125415000Y-106365000D01*
X127575000Y-106365000D02*
X127731000Y-106365000D01*
X169725000Y-102995000D02*
X167125000Y-102995000D01*
X167125000Y-102995000D02*
X167125000Y-105655000D01*
X167125000Y-105655000D02*
X169725000Y-105655000D01*
X169725000Y-105655000D02*
X169725000Y-102995000D01*
X170995000Y-102995000D02*
X172325000Y-102995000D01*
X172325000Y-102995000D02*
X172325000Y-104325000D01*
X126075000Y-81305000D02*
X126075000Y-71085000D01*
X126075000Y-71085000D02*
X123415000Y-71085000D01*
X123415000Y-71085000D02*
X123415000Y-81305000D01*
X123415000Y-81305000D02*
X126075000Y-81305000D01*
X126075000Y-82575000D02*
X126075000Y-83905000D01*
X126075000Y-83905000D02*
X124745000Y-83905000D01*
X153075000Y-112805000D02*
X153075000Y-110205000D01*
X153075000Y-110205000D02*
X150415000Y-110205000D01*
X150415000Y-110205000D02*
X150415000Y-112805000D01*
X150415000Y-112805000D02*
X153075000Y-112805000D01*
X153075000Y-114075000D02*
X153075000Y-115405000D01*
X153075000Y-115405000D02*
X151745000Y-115405000D01*
X158825000Y-112805000D02*
X158825000Y-110205000D01*
X158825000Y-110205000D02*
X156165000Y-110205000D01*
X156165000Y-110205000D02*
X156165000Y-112805000D01*
X156165000Y-112805000D02*
X158825000Y-112805000D01*
X158825000Y-114075000D02*
X158825000Y-115405000D01*
X158825000Y-115405000D02*
X157495000Y-115405000D01*
X153475000Y-61745000D02*
X148335000Y-61745000D01*
X148335000Y-61745000D02*
X148335000Y-64405000D01*
X148335000Y-64405000D02*
X153475000Y-64405000D01*
X153475000Y-64405000D02*
X153475000Y-61745000D01*
X154745000Y-61745000D02*
X156075000Y-61745000D01*
X156075000Y-61745000D02*
X156075000Y-63075000D01*
X129915000Y-106035000D02*
X129915000Y-97535000D01*
X132575000Y-106035000D02*
X132575000Y-97535000D01*
X129915000Y-106035000D02*
X132575000Y-106035000D01*
X129915000Y-97535000D02*
X132575000Y-97535000D01*
X140075000Y-97615000D02*
X140075000Y-106115000D01*
X137415000Y-97615000D02*
X137415000Y-106115000D01*
X140075000Y-97615000D02*
X137415000Y-97615000D01*
X140075000Y-106115000D02*
X137415000Y-106115000D01*
X133665000Y-106035000D02*
X133665000Y-97535000D01*
X136325000Y-106035000D02*
X136325000Y-97535000D01*
X133665000Y-106035000D02*
X136325000Y-106035000D01*
X133665000Y-97535000D02*
X136325000Y-97535000D01*
X137075000Y-60865000D02*
X137075000Y-69365000D01*
X134415000Y-60865000D02*
X134415000Y-69365000D01*
X137075000Y-60865000D02*
X134415000Y-60865000D01*
X137075000Y-69365000D02*
X134415000Y-69365000D01*
X149785000Y-103245000D02*
X158285000Y-103245000D01*
X149785000Y-105905000D02*
X158285000Y-105905000D01*
X149785000Y-103245000D02*
X149785000Y-105905000D01*
X158285000Y-103245000D02*
X158285000Y-105905000D01*
X141165000Y-106035000D02*
X141165000Y-97535000D01*
X143825000Y-106035000D02*
X143825000Y-97535000D01*
X141165000Y-106035000D02*
X143825000Y-106035000D01*
X141165000Y-97535000D02*
X143825000Y-97535000D01*
X161575000Y-60865000D02*
X161575000Y-69365000D01*
X158915000Y-60865000D02*
X158915000Y-69365000D01*
X161575000Y-60865000D02*
X158915000Y-60865000D01*
X161575000Y-69365000D02*
X158915000Y-69365000D01*
X127645000Y-98225000D02*
X115345000Y-98225000D01*
X115345000Y-93645000D02*
X115345000Y-90505000D01*
X115345000Y-85925000D02*
X127645000Y-85925000D01*
X127645000Y-95505000D02*
X127645000Y-98225000D01*
X125974050Y-92035000D02*
G75*
G03X125974050Y-92035000I-4579050J0D01*
G01*
X127645000Y-85925000D02*
X127645000Y-88645000D01*
X127645000Y-90505000D02*
X127645000Y-93645000D01*
X115345000Y-88645000D02*
X115345000Y-85925000D01*
X115345000Y-98225000D02*
X115345000Y-95505000D01*
D12*
X166467000Y-80651000D02*
X166721000Y-80905000D01*
X166467000Y-80651000D02*
X166467000Y-70999000D01*
X166721000Y-70745000D02*
X166467000Y-70999000D01*
X169642000Y-80905000D02*
X166721000Y-80905000D01*
X166721000Y-70745000D02*
X169642000Y-70745000D01*
D10*
X167330600Y-71202200D02*
G75*
G03X167330600Y-71202200I-254000J0D01*
G01*
D13*
G36*
X170785000Y-70491000D02*
X170785000Y-72396000D01*
X169515000Y-72396000D01*
X169515000Y-70491000D01*
X170785000Y-70491000D01*
G37*
X170785000Y-70491000D02*
X170785000Y-72396000D01*
X169515000Y-72396000D01*
X169515000Y-70491000D01*
X170785000Y-70491000D01*
G36*
X170785000Y-72396000D02*
X170785000Y-74174000D01*
X170023000Y-74174000D01*
X170023000Y-72396000D01*
X170785000Y-72396000D01*
G37*
X170785000Y-72396000D02*
X170785000Y-74174000D01*
X170023000Y-74174000D01*
X170023000Y-72396000D01*
X170785000Y-72396000D01*
G36*
X170785000Y-74174000D02*
X170785000Y-74936000D01*
X169515000Y-74936000D01*
X169515000Y-74174000D01*
X170785000Y-74174000D01*
G37*
X170785000Y-74174000D02*
X170785000Y-74936000D01*
X169515000Y-74936000D01*
X169515000Y-74174000D01*
X170785000Y-74174000D01*
G36*
X170785000Y-74936000D02*
X170785000Y-76714000D01*
X170023000Y-76714000D01*
X170023000Y-74936000D01*
X170785000Y-74936000D01*
G37*
X170785000Y-74936000D02*
X170785000Y-76714000D01*
X170023000Y-76714000D01*
X170023000Y-74936000D01*
X170785000Y-74936000D01*
G36*
X170785000Y-76714000D02*
X170785000Y-77476000D01*
X169515000Y-77476000D01*
X169515000Y-76714000D01*
X170785000Y-76714000D01*
G37*
X170785000Y-76714000D02*
X170785000Y-77476000D01*
X169515000Y-77476000D01*
X169515000Y-76714000D01*
X170785000Y-76714000D01*
G36*
X170785000Y-77476000D02*
X170785000Y-79254000D01*
X170023000Y-79254000D01*
X170023000Y-77476000D01*
X170785000Y-77476000D01*
G37*
X170785000Y-77476000D02*
X170785000Y-79254000D01*
X170023000Y-79254000D01*
X170023000Y-77476000D01*
X170785000Y-77476000D01*
G36*
X170785000Y-79254000D02*
X170785000Y-81159000D01*
X169515000Y-81159000D01*
X169515000Y-79254000D01*
X170785000Y-79254000D01*
G37*
X170785000Y-79254000D02*
X170785000Y-81159000D01*
X169515000Y-81159000D01*
X169515000Y-79254000D01*
X170785000Y-79254000D01*
D14*
X163677000Y-70445000D02*
X129895000Y-70445000D01*
X129895000Y-70445000D02*
X129895000Y-95845000D01*
X163677000Y-95845000D02*
X163677000Y-70445000D01*
X129895000Y-95845000D02*
X163651600Y-95845000D01*
D15*
X142527381Y-67448333D02*
X142527381Y-68019762D01*
X142527381Y-67734048D02*
X141527381Y-67734048D01*
X141670238Y-67829286D01*
X141765476Y-67924524D01*
X141813095Y-68019762D01*
X142527381Y-67019762D02*
X141527381Y-67019762D01*
X142527381Y-66448333D02*
X141955952Y-66876905D01*
X141527381Y-66448333D02*
X142098810Y-67019762D01*
X141527381Y-65829286D02*
X141527381Y-65638809D01*
X141575000Y-65543571D01*
X141670238Y-65448333D01*
X141860714Y-65400714D01*
X142194048Y-65400714D01*
X142384524Y-65448333D01*
X142479762Y-65543571D01*
X142527381Y-65638809D01*
X142527381Y-65829286D01*
X142479762Y-65924524D01*
X142384524Y-66019762D01*
X142194048Y-66067381D01*
X141860714Y-66067381D01*
X141670238Y-66019762D01*
X141575000Y-65924524D01*
X141527381Y-65829286D01*
X142527381Y-64972143D02*
X141527381Y-64972143D01*
X142527381Y-64543571D02*
X142003571Y-64543571D01*
X141908333Y-64591190D01*
X141860714Y-64686428D01*
X141860714Y-64829286D01*
X141908333Y-64924524D01*
X141955952Y-64972143D01*
X142527381Y-64067381D02*
X141860714Y-64067381D01*
X141955952Y-64067381D02*
X141908333Y-64019762D01*
X141860714Y-63924524D01*
X141860714Y-63781666D01*
X141908333Y-63686428D01*
X142003571Y-63638809D01*
X142527381Y-63638809D01*
X142003571Y-63638809D02*
X141908333Y-63591190D01*
X141860714Y-63495952D01*
X141860714Y-63353095D01*
X141908333Y-63257857D01*
X142003571Y-63210238D01*
X142527381Y-63210238D01*
X142527381Y-62210238D02*
X142527381Y-62781667D01*
X142527381Y-62495953D02*
X141527381Y-62495953D01*
X141670238Y-62591191D01*
X141765476Y-62686429D01*
X141813095Y-62781667D01*
X170992143Y-97241666D02*
X171039762Y-97289285D01*
X171087381Y-97432142D01*
X171087381Y-97527380D01*
X171039762Y-97670238D01*
X170944524Y-97765476D01*
X170849286Y-97813095D01*
X170658810Y-97860714D01*
X170515952Y-97860714D01*
X170325476Y-97813095D01*
X170230238Y-97765476D01*
X170135000Y-97670238D01*
X170087381Y-97527380D01*
X170087381Y-97432142D01*
X170135000Y-97289285D01*
X170182619Y-97241666D01*
X171087381Y-96289285D02*
X171087381Y-96860714D01*
X171087381Y-96575000D02*
X170087381Y-96575000D01*
X170230238Y-96670238D01*
X170325476Y-96765476D01*
X170373095Y-96860714D01*
X166742143Y-97241666D02*
X166789762Y-97289285D01*
X166837381Y-97432142D01*
X166837381Y-97527380D01*
X166789762Y-97670238D01*
X166694524Y-97765476D01*
X166599286Y-97813095D01*
X166408810Y-97860714D01*
X166265952Y-97860714D01*
X166075476Y-97813095D01*
X165980238Y-97765476D01*
X165885000Y-97670238D01*
X165837381Y-97527380D01*
X165837381Y-97432142D01*
X165885000Y-97289285D01*
X165932619Y-97241666D01*
X165932619Y-96860714D02*
X165885000Y-96813095D01*
X165837381Y-96717857D01*
X165837381Y-96479761D01*
X165885000Y-96384523D01*
X165932619Y-96336904D01*
X166027857Y-96289285D01*
X166123095Y-96289285D01*
X166265952Y-96336904D01*
X166837381Y-96908333D01*
X166837381Y-96289285D01*
X162328334Y-101042143D02*
X162280715Y-101089762D01*
X162137858Y-101137381D01*
X162042620Y-101137381D01*
X161899762Y-101089762D01*
X161804524Y-100994524D01*
X161756905Y-100899286D01*
X161709286Y-100708810D01*
X161709286Y-100565952D01*
X161756905Y-100375476D01*
X161804524Y-100280238D01*
X161899762Y-100185000D01*
X162042620Y-100137381D01*
X162137858Y-100137381D01*
X162280715Y-100185000D01*
X162328334Y-100232619D01*
X162661667Y-100137381D02*
X163280715Y-100137381D01*
X162947381Y-100518333D01*
X163090239Y-100518333D01*
X163185477Y-100565952D01*
X163233096Y-100613571D01*
X163280715Y-100708810D01*
X163280715Y-100946905D01*
X163233096Y-101042143D01*
X163185477Y-101089762D01*
X163090239Y-101137381D01*
X162804524Y-101137381D01*
X162709286Y-101089762D01*
X162661667Y-101042143D01*
X123987381Y-105543095D02*
X122987381Y-105543095D01*
X122987381Y-105305000D01*
X123035000Y-105162142D01*
X123130238Y-105066904D01*
X123225476Y-105019285D01*
X123415952Y-104971666D01*
X123558810Y-104971666D01*
X123749286Y-105019285D01*
X123844524Y-105066904D01*
X123939762Y-105162142D01*
X123987381Y-105305000D01*
X123987381Y-105543095D01*
X123987381Y-104019285D02*
X123987381Y-104590714D01*
X123987381Y-104305000D02*
X122987381Y-104305000D01*
X123130238Y-104400238D01*
X123225476Y-104495476D01*
X123273095Y-104590714D01*
X172777381Y-104658333D02*
X173491667Y-104658333D01*
X173634524Y-104705953D01*
X173729762Y-104801191D01*
X173777381Y-104944048D01*
X173777381Y-105039286D01*
X173777381Y-103658333D02*
X173777381Y-104229762D01*
X173777381Y-103944048D02*
X172777381Y-103944048D01*
X172920238Y-104039286D01*
X173015476Y-104134524D01*
X173063095Y-104229762D01*
X124411667Y-84357381D02*
X124411667Y-85071667D01*
X124364047Y-85214524D01*
X124268809Y-85309762D01*
X124125952Y-85357381D01*
X124030714Y-85357381D01*
X124840238Y-84452619D02*
X124887857Y-84405000D01*
X124983095Y-84357381D01*
X125221191Y-84357381D01*
X125316429Y-84405000D01*
X125364048Y-84452619D01*
X125411667Y-84547857D01*
X125411667Y-84643095D01*
X125364048Y-84785952D01*
X124792619Y-85357381D01*
X125411667Y-85357381D01*
X151411667Y-115857381D02*
X151411667Y-116571667D01*
X151364047Y-116714524D01*
X151268809Y-116809762D01*
X151125952Y-116857381D01*
X151030714Y-116857381D01*
X151792619Y-115857381D02*
X152411667Y-115857381D01*
X152078333Y-116238333D01*
X152221191Y-116238333D01*
X152316429Y-116285952D01*
X152364048Y-116333571D01*
X152411667Y-116428810D01*
X152411667Y-116666905D01*
X152364048Y-116762143D01*
X152316429Y-116809762D01*
X152221191Y-116857381D01*
X151935476Y-116857381D01*
X151840238Y-116809762D01*
X151792619Y-116762143D01*
X157161667Y-115857381D02*
X157161667Y-116571667D01*
X157114047Y-116714524D01*
X157018809Y-116809762D01*
X156875952Y-116857381D01*
X156780714Y-116857381D01*
X158066429Y-116190714D02*
X158066429Y-116857381D01*
X157828333Y-115809762D02*
X157590238Y-116524048D01*
X158209286Y-116524048D01*
X156527381Y-63408333D02*
X157241667Y-63408333D01*
X157384524Y-63455953D01*
X157479762Y-63551191D01*
X157527381Y-63694048D01*
X157527381Y-63789286D01*
X156527381Y-62455952D02*
X156527381Y-62932143D01*
X157003571Y-62979762D01*
X156955952Y-62932143D01*
X156908333Y-62836905D01*
X156908333Y-62598809D01*
X156955952Y-62503571D01*
X157003571Y-62455952D01*
X157098810Y-62408333D01*
X157336905Y-62408333D01*
X157432143Y-62455952D01*
X157479762Y-62503571D01*
X157527381Y-62598809D01*
X157527381Y-62836905D01*
X157479762Y-62932143D01*
X157432143Y-62979762D01*
X129367381Y-101951666D02*
X128891190Y-102285000D01*
X129367381Y-102523095D02*
X128367381Y-102523095D01*
X128367381Y-102142142D01*
X128415000Y-102046904D01*
X128462619Y-101999285D01*
X128557857Y-101951666D01*
X128700714Y-101951666D01*
X128795952Y-101999285D01*
X128843571Y-102046904D01*
X128891190Y-102142142D01*
X128891190Y-102523095D01*
X129367381Y-100999285D02*
X129367381Y-101570714D01*
X129367381Y-101285000D02*
X128367381Y-101285000D01*
X128510238Y-101380238D01*
X128605476Y-101475476D01*
X128653095Y-101570714D01*
X141527381Y-102031666D02*
X141051190Y-102365000D01*
X141527381Y-102603095D02*
X140527381Y-102603095D01*
X140527381Y-102222142D01*
X140575000Y-102126904D01*
X140622619Y-102079285D01*
X140717857Y-102031666D01*
X140860714Y-102031666D01*
X140955952Y-102079285D01*
X141003571Y-102126904D01*
X141051190Y-102222142D01*
X141051190Y-102603095D01*
X140622619Y-101650714D02*
X140575000Y-101603095D01*
X140527381Y-101507857D01*
X140527381Y-101269761D01*
X140575000Y-101174523D01*
X140622619Y-101126904D01*
X140717857Y-101079285D01*
X140813095Y-101079285D01*
X140955952Y-101126904D01*
X141527381Y-101698333D01*
X141527381Y-101079285D01*
X133117381Y-101951666D02*
X132641190Y-102285000D01*
X133117381Y-102523095D02*
X132117381Y-102523095D01*
X132117381Y-102142142D01*
X132165000Y-102046904D01*
X132212619Y-101999285D01*
X132307857Y-101951666D01*
X132450714Y-101951666D01*
X132545952Y-101999285D01*
X132593571Y-102046904D01*
X132641190Y-102142142D01*
X132641190Y-102523095D01*
X132117381Y-101618333D02*
X132117381Y-100999285D01*
X132498333Y-101332619D01*
X132498333Y-101189761D01*
X132545952Y-101094523D01*
X132593571Y-101046904D01*
X132688810Y-100999285D01*
X132926905Y-100999285D01*
X133022143Y-101046904D01*
X133069762Y-101094523D01*
X133117381Y-101189761D01*
X133117381Y-101475476D01*
X133069762Y-101570714D01*
X133022143Y-101618333D01*
X138527381Y-65281666D02*
X138051190Y-65615000D01*
X138527381Y-65853095D02*
X137527381Y-65853095D01*
X137527381Y-65472142D01*
X137575000Y-65376904D01*
X137622619Y-65329285D01*
X137717857Y-65281666D01*
X137860714Y-65281666D01*
X137955952Y-65329285D01*
X138003571Y-65376904D01*
X138051190Y-65472142D01*
X138051190Y-65853095D01*
X137860714Y-64424523D02*
X138527381Y-64424523D01*
X137479762Y-64662619D02*
X138194048Y-64900714D01*
X138194048Y-64281666D01*
X153868334Y-102697381D02*
X153535000Y-102221190D01*
X153296905Y-102697381D02*
X153296905Y-101697381D01*
X153677858Y-101697381D01*
X153773096Y-101745000D01*
X153820715Y-101792619D01*
X153868334Y-101887857D01*
X153868334Y-102030714D01*
X153820715Y-102125952D01*
X153773096Y-102173571D01*
X153677858Y-102221190D01*
X153296905Y-102221190D01*
X154773096Y-101697381D02*
X154296905Y-101697381D01*
X154249286Y-102173571D01*
X154296905Y-102125952D01*
X154392143Y-102078333D01*
X154630239Y-102078333D01*
X154725477Y-102125952D01*
X154773096Y-102173571D01*
X154820715Y-102268810D01*
X154820715Y-102506905D01*
X154773096Y-102602143D01*
X154725477Y-102649762D01*
X154630239Y-102697381D01*
X154392143Y-102697381D01*
X154296905Y-102649762D01*
X154249286Y-102602143D01*
X140617381Y-101951666D02*
X140141190Y-102285000D01*
X140617381Y-102523095D02*
X139617381Y-102523095D01*
X139617381Y-102142142D01*
X139665000Y-102046904D01*
X139712619Y-101999285D01*
X139807857Y-101951666D01*
X139950714Y-101951666D01*
X140045952Y-101999285D01*
X140093571Y-102046904D01*
X140141190Y-102142142D01*
X140141190Y-102523095D01*
X139617381Y-101094523D02*
X139617381Y-101285000D01*
X139665000Y-101380238D01*
X139712619Y-101427857D01*
X139855476Y-101523095D01*
X140045952Y-101570714D01*
X140426905Y-101570714D01*
X140522143Y-101523095D01*
X140569762Y-101475476D01*
X140617381Y-101380238D01*
X140617381Y-101189761D01*
X140569762Y-101094523D01*
X140522143Y-101046904D01*
X140426905Y-100999285D01*
X140188810Y-100999285D01*
X140093571Y-101046904D01*
X140045952Y-101094523D01*
X139998333Y-101189761D01*
X139998333Y-101380238D01*
X140045952Y-101475476D01*
X140093571Y-101523095D01*
X140188810Y-101570714D01*
X163027381Y-65281666D02*
X162551190Y-65615000D01*
X163027381Y-65853095D02*
X162027381Y-65853095D01*
X162027381Y-65472142D01*
X162075000Y-65376904D01*
X162122619Y-65329285D01*
X162217857Y-65281666D01*
X162360714Y-65281666D01*
X162455952Y-65329285D01*
X162503571Y-65376904D01*
X162551190Y-65472142D01*
X162551190Y-65853095D01*
X162027381Y-64948333D02*
X162027381Y-64281666D01*
X163027381Y-64710238D01*
X120331667Y-99639762D02*
X120474524Y-99687381D01*
X120712620Y-99687381D01*
X120807858Y-99639762D01*
X120855477Y-99592143D01*
X120903096Y-99496905D01*
X120903096Y-99401667D01*
X120855477Y-99306429D01*
X120807858Y-99258810D01*
X120712620Y-99211190D01*
X120522143Y-99163571D01*
X120426905Y-99115952D01*
X120379286Y-99068333D01*
X120331667Y-98973095D01*
X120331667Y-98877857D01*
X120379286Y-98782619D01*
X120426905Y-98735000D01*
X120522143Y-98687381D01*
X120760239Y-98687381D01*
X120903096Y-98735000D01*
X121236429Y-98687381D02*
X121474524Y-99687381D01*
X121665001Y-98973095D01*
X121855477Y-99687381D01*
X122093572Y-98687381D01*
X122998334Y-99687381D02*
X122426905Y-99687381D01*
X122712619Y-99687381D02*
X122712619Y-98687381D01*
X122617381Y-98830238D01*
X122522143Y-98925476D01*
X122426905Y-98973095D01*
D16*
X165125924Y-72858219D02*
X165644019Y-72858219D01*
X165704971Y-72827743D01*
X165735448Y-72797267D01*
X165765924Y-72736314D01*
X165765924Y-72614410D01*
X165735448Y-72553457D01*
X165704971Y-72522981D01*
X165644019Y-72492505D01*
X165125924Y-72492505D01*
X165765924Y-71852505D02*
X165765924Y-72218219D01*
X165765924Y-72035362D02*
X165125924Y-72035362D01*
X165217352Y-72096314D01*
X165278305Y-72157267D01*
X165308781Y-72218219D01*
X164495924Y-74117952D02*
X164495924Y-74422714D01*
X163855924Y-74422714D01*
X164495924Y-73904619D02*
X163855924Y-73904619D01*
X163855924Y-73752238D01*
X163886400Y-73660810D01*
X163947352Y-73599857D01*
X164008305Y-73569381D01*
X164130210Y-73538905D01*
X164221638Y-73538905D01*
X164343543Y-73569381D01*
X164404495Y-73599857D01*
X164465448Y-73660810D01*
X164495924Y-73752238D01*
X164495924Y-73904619D01*
X164495924Y-72929381D02*
X164495924Y-73295095D01*
X164495924Y-73112238D02*
X163855924Y-73112238D01*
X163947352Y-73173190D01*
X164008305Y-73234143D01*
X164038781Y-73295095D01*
X164495924Y-72319857D02*
X164495924Y-72685571D01*
X164495924Y-72502714D02*
X163855924Y-72502714D01*
X163947352Y-72563666D01*
X164008305Y-72624619D01*
X164038781Y-72685571D01*
X164495924Y-71710333D02*
X164495924Y-72076047D01*
X164495924Y-71893190D02*
X163855924Y-71893190D01*
X163947352Y-71954142D01*
X164008305Y-72015095D01*
X164038781Y-72076047D01*
X163855924Y-71496999D02*
X163855924Y-71070333D01*
X164495924Y-71344618D01*
D15*
X128331381Y-74762905D02*
X129140905Y-74762905D01*
X129236143Y-74715286D01*
X129283762Y-74667667D01*
X129331381Y-74572429D01*
X129331381Y-74381952D01*
X129283762Y-74286714D01*
X129236143Y-74239095D01*
X129140905Y-74191476D01*
X128331381Y-74191476D01*
X128426619Y-73762905D02*
X128379000Y-73715286D01*
X128331381Y-73620048D01*
X128331381Y-73381952D01*
X128379000Y-73286714D01*
X128426619Y-73239095D01*
X128521857Y-73191476D01*
X128617095Y-73191476D01*
X128759952Y-73239095D01*
X129331381Y-73810524D01*
X129331381Y-73191476D01*
M02*
